<svg version="1.1" id="Layer_1" xmlns="http://www.w3.org/2000/svg" xmlns:xlink="http://www.w3.org/1999/xlink" x="0px" y="0px" viewBox="0 0 543.89 174.41" style="enable-background:new 0 0 543.89 174.41;" xml:space="preserve">
<style type="text/css">

</style>
<g>
	<polygon class="st0" points="115.46,62.36 112.25,58.81 129.82,41.24 133.24,44.52 	"></polygon>
	<polygon class="st0" points="145.24,148.61 111.78,115.15 115.33,111.92 148.79,145.38 	"></polygon>
	<g>
		<path class="st0" d="M113.63,110.21c-6.43,7.38-15.89,12.05-26.42,12.05c-19.33,0-35.06-15.73-35.06-35.06
			s15.73-35.06,35.06-35.06c10.53,0,19.99,4.68,26.42,12.05l3.56-3.56c-7.35-8.28-18.07-13.52-29.98-13.52
			c-22.11,0-40.09,17.98-40.09,40.09c0,22.1,17.98,40.09,40.09,40.09c11.92,0,22.63-5.23,29.98-13.52L113.63,110.21z"></path>
		<path class="st0" d="M146.96,143.55c-14.99,15.89-36.24,25.83-59.76,25.83c-45.31,0-82.17-36.86-82.17-82.17
			S41.89,5.03,87.21,5.03c23.52,0,44.76,9.94,59.76,25.83l3.56-3.56C134.62,10.5,112.12,0,87.21,0C39.12,0,0,39.12,0,87.2
			s39.12,87.2,87.21,87.2c24.91,0,47.41-10.5,63.32-27.3L146.96,143.55z"></path>
		<path class="st0" d="M114.07,139.14c-8.1,4.24-17.3,6.64-27.05,6.64c-32.3,0-58.58-26.28-58.58-58.58
			c0-32.3,26.28-58.58,58.58-58.58c17,0,32.45,7.36,43.16,18.96l3.49-3.49c-11.6-12.49-28.29-20.4-46.64-20.4
			c-35.01,0-63.5,28.49-63.5,63.5c0,35.02,28.49,63.5,63.5,63.5c11.1,0,21.55-2.87,30.64-7.9L114.07,139.14z"></path>
		<path class="st0" d="M180.31,112.37c0-20.42,13.28-36.91,36.81-36.91c9.76,0,20.82,4.12,28.76,13.78L233.51,99.7
			c-3.42-4.12-9.35-8.25-16.39-8.25c-10.46,0-19.21,7.74-19.21,20.92c0,11.27,7.64,20.32,19.21,20.32c6.44,0,12.57-3.42,16.39-8.15
			l12.37,10.56c-6.13,7.64-16.09,13.68-28.76,13.68C197.4,148.78,180.31,136,180.31,112.37"></path>
	</g>
	<polygon class="st0" points="264.18,76.46 310.74,76.46 310.74,91.45 280.67,91.45 280.67,105.13 304.41,105.13 304.41,119.91 
		280.67,119.91 280.67,132.88 312.86,132.88 312.86,147.87 264.18,147.87 	"></polygon>
	<polygon class="st0" points="332.66,76.46 349.56,76.46 349.56,132.88 379.53,132.88 379.53,147.87 332.66,147.87 	"></polygon>
	<rect x="398.33" y="76.46" class="st0" width="17" height="71.41"></rect>
	<path class="st0" d="M475.33,122.65l-8.41-25.87h-0.2l-8.33,25.87H475.33z M479.96,136.93h-26.2l-3.53,10.94h-17.6l26.15-71.41
		h16.09l26.35,71.41h-17.6L479.96,136.93z"></path>
	<g>
		<path class="st0" d="M180.31,48.08l2.25-2.75c1.66,1.59,3.95,2.5,6.17,2.5c2.54,0,3.95-1.16,3.95-2.92c0-1.83-1.48-2.43-3.56-3.31
			l-3.14-1.37c-2.29-0.95-4.65-2.75-4.65-6.09c0-3.7,3.24-6.55,7.75-6.55c2.78,0,5.36,1.13,7.15,2.85l-2.25,2.75
			c-1.45-1.23-3.14-1.94-4.9-1.94c-2.15,0-3.52,0.99-3.52,2.64c0,1.76,1.72,2.4,3.63,3.2l3.1,1.27c2.75,1.16,4.65,2.89,4.65,6.24
			c0,3.73-3.1,6.87-8.31,6.87C185.45,51.46,182.49,50.3,180.31,48.08"></path>
		<path class="st0" d="M210.68,46.39v-3.66c-4.72,0.57-6.13,1.62-6.13,3.38c0,1.48,0.99,2.04,2.4,2.04
			C208.35,48.15,209.41,47.58,210.68,46.39 M200.53,46.39c0-3.81,3.03-5.71,10.15-6.48c-0.07-1.76-0.78-3.24-3.1-3.24
			c-1.69,0-3.31,0.7-4.86,1.62l-1.48-2.75c1.9-1.2,4.37-2.25,7.12-2.25c4.3,0,6.48,2.68,6.48,7.5v10.25h-3.38l-0.35-1.9h-0.14
			c-1.55,1.34-3.24,2.32-5.28,2.32C202.64,51.46,200.53,49.42,200.53,46.39"></path>
		<path class="st0" d="M229.57,46.39v-3.66c-4.72,0.57-6.13,1.62-6.13,3.38c0,1.48,0.99,2.04,2.4,2.04
			C227.24,48.15,228.3,47.58,229.57,46.39 M219.42,46.39c0-3.81,3.03-5.71,10.15-6.48c-0.07-1.76-0.78-3.24-3.1-3.24
			c-1.69,0-3.31,0.7-4.86,1.62l-1.48-2.75c1.9-1.2,4.37-2.25,7.12-2.25c4.3,0,6.48,2.68,6.48,7.5v10.25h-3.38l-0.35-1.9h-0.14
			c-1.55,1.34-3.24,2.32-5.28,2.32C221.53,51.46,219.42,49.42,219.42,46.39"></path>
		<path class="st0" d="M237.11,33.7h4.23l2.68,8.91c0.49,1.72,0.99,3.49,1.48,5.25h0.14c0.46-1.76,0.99-3.52,1.44-5.25l2.71-8.91
			h4.02l-5.88,17.34h-4.79L237.11,33.7z"></path>
		<path class="st0" d="M257.29,44.56V33.7h4.16v10.32c0,2.82,0.81,3.88,2.64,3.88c1.52,0,2.5-0.71,3.77-2.36V33.7h4.16v17.34h-3.42
			l-0.32-2.54h-0.11c-1.52,1.8-3.17,2.96-5.57,2.96C258.92,51.46,257.29,48.92,257.29,44.56"></path>
		<path class="st0" d="M278.47,45.15v-8.14H276v-3.1l2.68-0.21l0.49-5.39h3.45v5.39h4.4v3.31h-4.4v8.14c0,2.01,0.81,2.99,2.43,2.99
			c0.6,0,1.2-0.11,1.8-0.35l0.74,2.92c-0.92,0.42-2.19,0.74-3.6,0.74C279.95,51.46,278.47,48.92,278.47,45.15"></path>
		<path class="st0" d="M301.19,40.54c0-2.54-1.2-4.02-3.45-4.02c-1.97,0-3.66,1.41-4.02,4.02H301.19z M289.64,42.37
			c0-5.64,3.95-9.09,8-9.09c4.69,0,7.22,3.38,7.22,8.24c0,0.85-0.07,1.48-0.21,2.11h-10.92c0.42,2.89,2.26,4.58,5,4.58
			c1.48,0,2.82-0.42,4.02-1.2l1.41,2.61c-1.62,1.2-3.73,1.83-5.99,1.83C293.37,51.46,289.64,48.15,289.64,42.37"></path>
		<path class="st0" d="M309.65,45.15v-8.14h-2.47v-3.1l2.68-0.21l0.49-5.39h3.45v5.39h4.4v3.31h-4.4v8.14
			c0,2.01,0.81,2.99,2.43,2.99c0.6,0,1.2-0.11,1.8-0.35l0.74,2.92c-0.92,0.42-2.19,0.74-3.6,0.74
			C311.13,51.46,309.65,48.92,309.65,45.15"></path>
		<path class="st0" d="M322.44,45.15v-8.14h-2.47v-3.1l2.68-0.21l0.49-5.39h3.45v5.39h4.4v3.31h-4.4v8.14
			c0,2.01,0.81,2.99,2.43,2.99c0.6,0,1.2-0.11,1.8-0.35l0.74,2.92c-0.92,0.42-2.19,0.74-3.6,0.74
			C323.92,51.46,322.44,48.92,322.44,45.15"></path>
		<path class="st0" d="M343.79,46.39v-3.66c-4.72,0.57-6.13,1.62-6.13,3.38c0,1.48,0.99,2.04,2.4,2.04
			C341.47,48.15,342.53,47.58,343.79,46.39 M333.65,46.39c0-3.81,3.03-5.71,10.15-6.48c-0.07-1.76-0.78-3.24-3.1-3.24
			c-1.69,0-3.31,0.7-4.86,1.62l-1.48-2.75c1.9-1.2,4.37-2.25,7.12-2.25c4.3,0,6.48,2.68,6.48,7.5v10.25h-3.38l-0.35-1.9h-0.14
			c-1.55,1.34-3.24,2.32-5.28,2.32C335.76,51.46,333.65,49.42,333.65,46.39"></path>
		<path class="st0" d="M351.33,33.7h4.23l2.68,8.91c0.49,1.72,0.99,3.49,1.48,5.25h0.14c0.46-1.76,0.99-3.52,1.45-5.25l2.71-8.91
			h4.02l-5.88,17.34h-4.79L351.33,33.7z"></path>
		<path class="st0" d="M371.52,44.56V33.7h4.16v10.32c0,2.82,0.81,3.88,2.64,3.88c1.52,0,2.5-0.71,3.77-2.36V33.7h4.16v17.34h-3.42
			l-0.32-2.54h-0.11c-1.51,1.8-3.17,2.96-5.57,2.96C373.14,51.46,371.52,48.92,371.52,44.56"></path>
		<path class="st0" d="M391.89,44.56V33.7h4.16v10.32c0,2.82,0.81,3.88,2.64,3.88c1.52,0,2.5-0.71,3.77-2.36V33.7h4.16v17.34h-3.42
			l-0.32-2.54h-0.11c-1.51,1.8-3.17,2.96-5.57,2.96C393.51,51.46,391.89,48.92,391.89,44.56"></path>
		<path class="st0" d="M410.74,48.92l1.83-2.36c1.52,1.23,3.1,1.76,4.86,1.76c1.83,0,2.71-0.85,2.71-2.01
			c0-1.44-1.69-2.01-3.63-2.71c-2.5-0.92-4.83-2.36-4.83-5.11c0-3.03,2.47-5.21,6.34-5.21c2.36,0,4.37,0.88,5.78,2.11l-1.8,2.36
			c-1.23-0.92-2.5-1.34-3.88-1.34c-1.73,0-2.5,0.85-2.5,1.87c0,1.27,1.23,1.76,3.42,2.5c2.68,0.92,5.04,2.29,5.04,5.28
			c0,3-2.39,5.39-6.8,5.39C414.9,51.46,412.43,50.55,410.74,48.92"></path>
	</g>
	<polygon class="st0" points="428.36,26.16 432.48,26.16 432.48,41.52 432.62,41.52 438.86,33.7 443.44,33.7 437.55,40.82 
		444.04,51.04 439.53,51.04 435.12,43.6 432.48,46.6 432.48,51.04 428.36,51.04 	"></polygon>
	<g>
		<path class="st0" d="M447.52,33.7h4.19v17.34h-4.19V33.7z M447.14,28.38c0-1.41,1.02-2.36,2.5-2.36c1.48,0,2.5,0.95,2.5,2.36
			c0,1.41-1.02,2.36-2.5,2.36C448.16,30.74,447.14,29.79,447.14,28.38"></path>
		<path class="st0" d="M457.5,33.7h3.42l0.32,3.1h0.11c1.27-2.25,3.1-3.52,4.93-3.52c0.88,0,1.44,0.14,1.97,0.35l-0.85,3.56
			c-0.53-0.14-0.95-0.21-1.66-0.21c-1.37,0-3.03,0.92-4.05,3.56v10.5h-4.19V33.7z"></path>
		<path class="st0" d="M471.06,28.38c0-1.41,1.02-2.36,2.5-2.36c1.48,0,2.5,0.95,2.5,2.36c0,1.41-1.02,2.36-2.5,2.36
			C472.08,30.74,471.06,29.79,471.06,28.38 M467.29,57.77l0.78-3.06c0.46,0.14,0.95,0.28,1.48,0.28c1.52,0,1.97-1.06,1.97-3.06V33.7
			h4.16v18.11c0,3.7-1.41,6.45-5.57,6.45C468.88,58.26,467.96,58.05,467.29,57.77"></path>
		<path class="st0" d="M490.69,46.39v-3.66c-4.72,0.57-6.13,1.62-6.13,3.38c0,1.48,0.99,2.04,2.4,2.04
			C488.36,48.15,489.42,47.58,490.69,46.39 M480.54,46.39c0-3.81,3.03-5.71,10.15-6.48c-0.07-1.76-0.78-3.24-3.1-3.24
			c-1.69,0-3.31,0.7-4.86,1.62l-1.48-2.75c1.9-1.2,4.37-2.25,7.12-2.25c4.3,0,6.48,2.68,6.48,7.5v10.25h-3.38l-0.35-1.9h-0.14
			c-1.55,1.34-3.24,2.32-5.28,2.32C482.65,51.46,480.54,49.42,480.54,46.39"></path>
		<path class="st0" d="M498.65,48.92l1.83-2.36c1.51,1.23,3.1,1.76,4.86,1.76c1.83,0,2.71-0.85,2.71-2.01
			c0-1.44-1.69-2.01-3.63-2.71c-2.5-0.92-4.83-2.36-4.83-5.11c0-3.03,2.47-5.21,6.34-5.21c2.36,0,4.37,0.88,5.78,2.11l-1.8,2.36
			c-1.23-0.92-2.5-1.34-3.88-1.34c-1.73,0-2.5,0.85-2.5,1.87c0,1.27,1.23,1.76,3.42,2.5c2.68,0.92,5.04,2.29,5.04,5.28
			c0,3-2.4,5.39-6.8,5.39C502.81,51.46,500.34,50.55,498.65,48.92"></path>
		<path class="st0" d="M516.2,45.15v-8.14h-2.47v-3.1l2.68-0.21l0.49-5.39h3.45v5.39h4.4v3.31h-4.4v8.14c0,2.01,0.81,2.99,2.43,2.99
			c0.6,0,1.2-0.11,1.8-0.35l0.74,2.92c-0.92,0.42-2.19,0.74-3.6,0.74C517.68,51.46,516.2,48.92,516.2,45.15"></path>
		<path class="st0" d="M539.63,42.41c0-3.45-1.48-5.71-3.98-5.71s-3.98,2.25-3.98,5.71c0,3.42,1.48,5.67,3.98,5.67
			S539.63,45.82,539.63,42.41 M527.37,42.41c0-5.78,3.94-9.13,8.28-9.13c4.3,0,8.24,3.35,8.24,9.13c0,5.74-3.95,9.05-8.24,9.05
			C531.31,51.46,527.37,48.15,527.37,42.41"></path>
	</g>
</g>
</svg>