<?xml version="1.0" encoding="UTF-8" standalone="no"?>
<svg
   width="370"
   height="78"
   viewBox="0 0 370.00002 77.999997"
   version="1.1"
   id="svg597"
   sodipodi:docname="_website-logo-en-manrope.svg"
   inkscape:version="1.2.2 (b0a8486541, 2022-12-01)"
   inkscape:export-filename="website-logo-en.svg"
   inkscape:export-xdpi="96"
   inkscape:export-ydpi="96"
   xmlns:inkscape="http://www.inkscape.org/namespaces/inkscape"
   xmlns:sodipodi="http://sodipodi.sourceforge.net/DTD/sodipodi-0.dtd"
   xmlns="http://www.w3.org/2000/svg"
   xmlns:svg="http://www.w3.org/2000/svg">
  <defs
     id="defs601" />
  <sodipodi:namedview
     id="namedview599"
     pagecolor="#ffffff"
     bordercolor="#000000"
     borderopacity="0.25"
     inkscape:showpageshadow="2"
     inkscape:pageopacity="0.0"
     inkscape:pagecheckerboard="0"
     inkscape:deskcolor="#d1d1d1"
     showgrid="false"
     inkscape:zoom="5.0783784"
     inkscape:cx="185.39383"
     inkscape:cy="39.185737"
     inkscape:window-width="2560"
     inkscape:window-height="1371"
     inkscape:window-x="0"
     inkscape:window-y="0"
     inkscape:window-maximized="1"
     inkscape:current-layer="g1769" />
  <path
     d="M 45,12 A 33,33 0 1 1 12,45 33,33 0 0 1 45,12 Z"
     fill="#fffa5d"
     id="path443" />
  <path
     d="M 3,3 V 61 H 61 V 3 H 3 M 2,0 h 60 a 2,2 0 0 1 2,2 v 60 a 2,2 0 0 1 -2,2 H 2 A 2,2 0 0 1 0,62 V 2 A 2,2 0 0 1 2,0 Z"
     fill="#2c2d47"
     id="path445" />
  <path
     d="m 45.464,53.36 a 11.821,11.821 0 0 0 1.776,-0.12 6.047,6.047 0 0 0 3.024,-1.416 l 1.584,1.512 2.088,-2.236 -2.112,-1.94 A 11.614,11.614 0 0 0 51.968,47 v -3.288 h -2.832 v 2.952 l -3.96,-3.672 c -0.456,-0.408 -0.888,-0.816 -1.152,-1.1 a 1.989,1.989 0 0 1 -0.72,-1.512 1.679,1.679 0 0 1 1.056,-1.68 2.75,2.75 0 0 1 1.2,-0.24 2.3,2.3 0 0 1 1.68,0.552 2.061,2.061 0 0 1 0.5,0.864 l 3.24,-0.648 a 4.979,4.979 0 0 0 -1.224,-2.256 5.425,5.425 0 0 0 -4.1,-1.56 7.3,7.3 0 0 0 -2.448,0.36 4.736,4.736 0 0 0 -3.192,4.56 4.412,4.412 0 0 0 1.3,3.144 5.686,5.686 0 0 0 -0.888,0.816 5.544,5.544 0 0 0 -1.228,3.644 5.4,5.4 0 0 0 1.368,3.624 6.574,6.574 0 0 0 4.896,1.8 z m 0.144,-3.1 a 3.439,3.439 0 0 1 -2.568,-0.932 2.469,2.469 0 0 1 -0.552,-1.584 2.282,2.282 0 0 1 0.412,-1.392 2.04,2.04 0 0 1 0.792,-0.6 l 4.22,3.888 a 3.231,3.231 0 0 1 -1.272,0.528 4.858,4.858 0 0 1 -1.032,0.096 z"
     fill="#2c2d47"
     id="path447" />
  <g
     id="g1769"
     transform="translate(-13.644219,-82.930588)">
    <text
       xml:space="preserve"
       style="font-style:normal;font-variant:normal;font-weight:800;font-stretch:normal;font-size:24px;font-family:Manrope;-inkscape-font-specification:'Manrope, Ultra-Bold';font-variant-ligatures:normal;font-variant-caps:normal;font-variant-numeric:normal;font-variant-east-asian:normal;fill:#2c2d47;fill-opacity:1"
       x="84.164223"
       y="112.93472"
       id="text228-6"><tspan
         sodipodi:role="line"
         id="tspan1465-3"
         x="84.164223"
         y="112.93472">Medical, scientific</tspan></text>
    <text
       xml:space="preserve"
       style="font-style:normal;font-variant:normal;font-weight:800;font-stretch:normal;font-size:24px;font-family:Manrope;-inkscape-font-specification:'Manrope, Ultra-Bold';font-variant-ligatures:normal;font-variant-caps:normal;font-variant-numeric:normal;font-variant-east-asian:normal;fill:#2c2d47;fill-opacity:1"
       x="83.744217"
       y="135.93472"
       id="text228-7-2"><tspan
         id="tspan1463-0"
         x="83.744217"
         y="135.93472"
         sodipodi:role="line">technical bookshop</tspan></text>
    <text
       xml:space="preserve"
       style="font-style:normal;font-variant:normal;font-weight:bold;font-stretch:normal;font-size:13.3333px;line-height:1.15;font-family:Manrope;-inkscape-font-specification:'Manrope, Bold';font-variant-ligatures:normal;font-variant-caps:normal;font-variant-numeric:normal;font-variant-east-asian:normal;fill:#9091a5;fill-opacity:1;stroke-width:0.999997"
       x="85.142479"
       y="154.53011"
       id="text1"><tspan
         sodipodi:role="line"
         id="tspan1"
         x="85.142479"
         y="154.53011"
         style="font-style:normal;font-variant:normal;font-weight:bold;font-stretch:normal;font-size:13.3333px;font-family:Manrope;-inkscape-font-specification:'Manrope, Bold';font-variant-ligatures:normal;font-variant-caps:normal;font-variant-numeric:normal;font-variant-east-asian:normal;fill:#9091a5;fill-opacity:1;stroke-width:0.999997">by JLE</tspan></text>
  </g>
</svg>
