<?xml version="1.0" encoding="UTF-8"?><svg id="Calque_1" xmlns="http://www.w3.org/2000/svg" viewBox="0 0 31.09 31.09"><defs><style>.cls-1{fill:#fff;}.cls-1,.cls-2{stroke-width:0px;}.cls-2{fill:#0476b5;}</style></defs><path class="cls-1" d="M31.09,15.55c0,8.59-6.96,15.55-15.55,15.55h0C6.96,31.09,0,24.13,0,15.55h0C0,6.96,6.96,0,15.55,0h0c8.59,0,15.55,6.96,15.55,15.55h0Z"/><circle class="cls-2" cx="12.39" cy="11.06" r="1.37"/><rect class="cls-2" x="11.25" y="13.35" width="2.28" height="6.84" rx="1.14" ry="1.14"/><path class="cls-2" d="M21.28,15.85v3.88c0,.25-.21.46-.46.46h-1.37c-.25,0-.46-.21-.46-.46v-3.19c0-.63-.51-1.14-1.14-1.14s-1.14.51-1.14,1.14v3.19c0,.25-.21.46-.46.46h-1.37c-.25,0-.46-.21-.46-.46v-5.93c0-.25.21-.46.46-.46h1.37c.25,0,.46.21.46.46v.29c.46-.59,1.21-.98,2.05-.98,1.26,0,2.51.91,2.51,2.74Z"/></svg>