<?xml version="1.0" encoding="UTF-8"?><svg id="Calque_1" xmlns="http://www.w3.org/2000/svg" viewBox="0 0 52 52"><defs><style>.cls-1{fill:#6975cf;}.cls-1,.cls-2{stroke-width:0px;}.cls-2{fill:#fff;}</style></defs><circle class="cls-1" cx="26" cy="26" r="26"/><path class="cls-2" d="M16.66,27.08c.77-.37,1.46-.3,2.14.15,1.45.94,2.91,1.87,4.36,2.81,1.2.77,2.12,1.79,2.72,3.09.03.06.06.11.11.2.05-.1.09-.16.12-.23.6-1.28,1.5-2.28,2.68-3.05,1.46-.94,2.93-1.87,4.39-2.82.68-.45,1.38-.52,2.14-.15.04-.09.08-.19.12-.28.52-1.39,1.03-2.79,1.56-4.17.28-.74.78-1.25,1.59-1.41,1.31-.25,2.51.99,2.19,2.29-.6,2.46-1.19,4.92-1.83,7.36-.58,2.21-1.87,3.97-3.68,5.34-.85.65-1.74,1.25-2.61,1.88-.1.07-.17.22-.18.35-.03.27,0,.54,0,.81-.02.64-.46,1.11-1.1,1.17-.1,0-.19,0-.29,0-3.4,0-6.8,0-10.21,0-.96,0-1.43-.44-1.37-1.4.04-.6-.15-.96-.66-1.28-.83-.53-1.63-1.1-2.4-1.72-1.9-1.52-3.09-3.48-3.63-5.87-.49-2.17-1.06-4.33-1.6-6.49-.25-.99.19-1.91,1.09-2.29.9-.38,1.89-.07,2.42.78.12.19.22.41.3.63.51,1.35,1.01,2.71,1.52,4.07.03.08.07.16.11.26ZM25.41,39.23c0-1.01.01-1.99,0-2.96-.04-2.12-.85-3.86-2.61-5.07-1.55-1.07-3.16-2.05-4.75-3.06-.38-.24-.82-.15-1.05.2-.23.34-.15.74.2,1.02.59.47,1.18.93,1.77,1.4.33.26.66.51.97.78.23.19.27.5.13.73-.13.23-.4.35-.64.27-.13-.05-.26-.13-.37-.22-.88-.69-1.76-1.39-2.64-2.08-.62-.49-.8-1.12-.69-1.88.02-.14.02-.31-.03-.44-.59-1.59-1.18-3.18-1.78-4.77-.05-.13-.1-.25-.17-.36-.24-.38-.62-.5-1-.33-.37.16-.52.5-.41.94.56,2.27,1.14,4.53,1.68,6.8.53,2.22,1.75,3.95,3.58,5.27.88.64,1.77,1.27,2.67,1.9.26.18.39.4.38.73-.02.38,0,.77,0,1.17h4.75ZM31.33,39.23c0-.37.02-.72,0-1.06-.03-.39.12-.65.44-.87.95-.66,1.9-1.32,2.83-2.02,1.55-1.17,2.69-2.65,3.2-4.53.67-2.47,1.25-4.96,1.87-7.44.09-.36-.07-.69-.39-.85-.33-.17-.68-.12-.92.17-.12.14-.21.3-.27.47-.61,1.61-1.21,3.22-1.8,4.83-.05.13-.05.28-.03.42.11.75-.06,1.4-.68,1.89-.52.41-1.04.83-1.57,1.24-.41.32-.82.65-1.23.97-.24.18-.51.17-.72,0-.21-.17-.27-.41-.17-.65.05-.13.18-.25.29-.35.88-.71,1.77-1.4,2.66-2.1.3-.24.38-.61.2-.93-.16-.31-.52-.46-.87-.36-.11.03-.21.1-.31.16-1.5.96-3,1.91-4.49,2.88-1.3.85-2.15,2.03-2.57,3.53-.42,1.52-.13,3.08-.24,4.63h4.76Z"/><path class="cls-2" d="M22.63,26.59c.25,0,.46,0,.67,0,.39.01.65.26.64.6,0,.34-.26.55-.64.56-.22,0-.44,0-.67,0-.67-.02-1.15-.49-1.15-1.16,0-.72,0-1.43,0-2.15,0-.1,0-.21,0-.36-.12,0-.22,0-.33,0-.99,0-1.97,0-2.96,0-.81,0-1.29-.49-1.29-1.31,0-.95,0-1.89,0-2.84,0-1.36.7-2.36,1.98-2.83.04-.01.07-.03.1-.05-1.05-1.76-1.07-3.1-.06-4.29.91-1.08,2.4-1.46,3.71-.95,1.44.57,2.12,1.8,2.04,3.71.89-.36,1.79-.37,2.68,0,0-2.06.66-3.23,2.14-3.75,1.33-.47,2.79-.04,3.65,1.04.75.93,1.17,2.64-.11,4.23.12.05.24.09.35.14,1.07.51,1.68,1.35,1.73,2.54.04,1.05.02,2.11,0,3.16,0,.69-.52,1.19-1.22,1.2-1.1,0-2.2,0-3.35,0,0,.16,0,.3,0,.44,0,.68,0,1.35,0,2.03,0,.7-.48,1.18-1.18,1.2-.23,0-.46,0-.7,0-.34-.01-.57-.24-.58-.56,0-.32.21-.57.55-.59.24-.02.48,0,.74,0,0-.59,0-1.15,0-1.71,0-.45,0-.91,0-1.36,0-.97-.69-1.7-1.66-1.73-1.14-.03-2.28-.03-3.42,0-.96.02-1.64.75-1.65,1.71,0,1.01,0,2.03,0,3.09ZM22.75,18.13c-1.08,0-2.11-.04-3.14.01-.89.04-1.54.78-1.55,1.65-.01.99,0,1.99,0,2.99,0,.04.02.09.03.14h3.43c.28-1.11.96-1.83,2.06-2.2-.64-.75-.91-1.6-.82-2.59ZM28.5,20.64c.42.3.9.54,1.25.91.35.38.56.88.84,1.35h3.36c0-1.01,0-2.01,0-3,0-1.06-.72-1.78-1.78-1.79-.88,0-1.76,0-2.64,0-.08,0-.17.01-.25.02q-.11,1.43-.77,2.51ZM32.67,14.85c0-1.16-.94-2.1-2.1-2.1-1.16,0-2.1.93-2.11,2.09,0,1.17.94,2.12,2.11,2.11,1.16,0,2.09-.94,2.09-2.11ZM21.41,16.96c1.17,0,2.1-.92,2.12-2.08.01-1.17-.93-2.13-2.11-2.13-1.16,0-2.1.94-2.1,2.1,0,1.17.93,2.1,2.09,2.11ZM28.1,18.52c0-1.17-.93-2.1-2.09-2.1-1.17,0-2.1.92-2.11,2.09,0,1.18.93,2.12,2.11,2.12,1.17,0,2.09-.93,2.09-2.1Z"/><path class="cls-2" d="M26,27.75c-.33,0-.59-.25-.59-.58,0-.31.26-.57.57-.58.32,0,.59.27.59.59,0,.31-.25.56-.57.57Z"/></svg>