<?xml version="1.0" encoding="UTF-8"?><svg id="Calque_1" xmlns="http://www.w3.org/2000/svg" viewBox="0 0 52 52"><defs><style>.cls-1{fill:#edc883;}.cls-1,.cls-2{stroke-width:0px;}.cls-2{fill:#fff;}</style></defs><circle class="cls-1" cx="26" cy="26" r="26"/><path class="cls-2" d="M26,36c-3.06,0-6.12,0-9.17,0-1.35,0-2.38-.88-2.58-2.21-.02-.13-.02-.26-.02-.39,0-3.83,0-7.66,0-11.5,0-.31.1-.54.35-.73.32-.25.63-.51.93-.78.08-.07.14-.2.14-.3.01-.88,0-1.76,0-2.64,0-1.12.66-1.78,1.79-1.78,1.19,0,2.38,0,3.56,0,.12,0,.27-.06.37-.13.99-.81,1.97-1.63,2.96-2.45,1.02-.85,2.32-.85,3.35,0,.98.81,1.96,1.62,2.94,2.44.13.11.26.16.43.16,1.2,0,2.39,0,3.59,0,1.05,0,1.72.67,1.72,1.73,0,.89,0,1.78,0,2.67,0,.15.03.25.16.35.32.25.62.52.94.77.23.18.33.4.33.69,0,3.85,0,7.69,0,11.54,0,1.46-1.11,2.57-2.58,2.58-3.07,0-6.13,0-9.2,0ZM26.01,17.05c-2.87,0-5.73,0-8.6,0-.32,0-.38.06-.38.37,0,1.66,0,3.33,0,4.99,0,.17.05.28.18.39,2.66,2.2,5.31,4.4,7.97,6.6.55.46,1.1.46,1.66,0,2.65-2.2,5.31-4.41,7.97-6.6.13-.11.18-.22.18-.39,0-1.64,0-3.28,0-4.92,0-.4-.03-.44-.43-.44-2.84,0-5.69,0-8.53,0ZM23.75,30c-2.24,1.53-4.45,3.05-6.72,4.6h17.93c-2.26-1.55-4.48-3.07-6.71-4.6-.64.6-1.31,1.12-2.23,1.12-.94,0-1.61-.51-2.26-1.12ZM15.69,33.85c2.32-1.59,4.62-3.17,6.95-4.76-2.35-1.95-4.68-3.88-7.02-5.82-.09,1.36-.04,10.29.07,10.59ZM36.38,23.27c-2.35,1.95-4.67,3.87-7.01,5.82,2.33,1.6,4.64,3.18,6.95,4.76.1-.29.15-9.7.06-10.58ZM28.63,15.66c-.7-.58-1.35-1.13-2.02-1.64-.4-.3-.94-.25-1.34.08-.33.26-.65.54-.97.81-.29.24-.58.48-.91.76h5.25Z"/><path class="cls-2" d="M25.98,23.49c-1.65,0-3.29,0-4.94,0-.41,0-.69-.22-.75-.57-.07-.41.21-.77.62-.81.05,0,.09,0,.14,0,3.3,0,6.6,0,9.91,0,.44,0,.75.26.77.65.02.42-.29.73-.76.73-1.49,0-2.97,0-4.46,0-.18,0-.35,0-.53,0Z"/><path class="cls-2" d="M24.22,20.73c-1.08,0-2.16,0-3.24,0-.33,0-.59-.2-.68-.49-.09-.28,0-.59.25-.75.12-.08.28-.14.43-.14,2.17,0,4.33,0,6.5,0,.39,0,.69.3.7.68,0,.39-.29.7-.7.7-1.09,0-2.17,0-3.26,0Z"/></svg>