<?xml version="1.0" encoding="UTF-8"?><svg id="Calque_1" xmlns="http://www.w3.org/2000/svg" viewBox="0 0 52 52"><defs><style>.cls-1{fill:#1a3c6c;}.cls-1,.cls-2{stroke-width:0px;}.cls-2{fill:#fff;}</style></defs><circle class="cls-1" cx="26" cy="26" r="26"/><path class="cls-2" d="M28.04,36.13c.13,0,.23,0,.33,0,3.2,0,6.41-.02,9.61.01.95,0,1.54-.61,1.54-1.55-.02-4.33,0-8.65,0-12.98v-.34H11.15c0-.08-.04-2.84-.01-4.18.03-1.37,1.21-2.53,2.58-2.58.08,0,.15,0,.23,0,8.03,0,16.07,0,24.1,0,1.45,0,2.58.92,2.78,2.33.02.16.03.31.03.47,0,5.78,0,11.56,0,17.35,0,1.63-1.12,2.78-2.75,2.83-.07,0-.14,0-.2,0-7.95,0-15.9,0-23.84,0-1.21,0-2.15-.47-2.68-1.58-.15-.32-.25-.7-.25-1.06-.01-3.34,0-9.52,0-11.55,0-.37.3-.67.67-.67h0c.37,0,.67.3.67.67,0,2.01,0,8.05,0,11.26,0,.18.01.37.05.55.12.55.61.98,1.17,1,.48.02.97,0,1.48,0,0-2.72,1.17-4.75,3.54-6.08-1.5-2.01-.74-4.22.56-5.25,1.43-1.14,3.44-1.09,4.8.12,1.32,1.18,1.78,3.33.42,5.13,2.36,1.32,3.54,3.34,3.55,6.09ZM39.5,19.89c0-.97.04-1.92-.01-2.86-.03-.65-.52-1.08-1.17-1.17-.14-.02-.29-.02-.43-.02-7.82,0-15.64,0-23.46,0-.17,0-.35,0-.52,0-.86.01-1.42.56-1.42,1.42,0,.8,0,1.61,0,2.41,0,.07.01.13.02.21h27.01ZM26.65,36.11c.01-.1.03-.17.03-.25.09-2.03-1.34-4.13-3.26-4.79-.1-.04-.24-.01-.35.03-.97.39-1.94.39-2.91,0-.12-.05-.29-.05-.4,0-1.33.53-2.28,1.47-2.83,2.79-.29.7-.42,1.44-.36,2.22h10.09ZM21.62,30.03c1.32,0,2.35-1.05,2.35-2.37,0-1.3-1.05-2.34-2.35-2.34-1.31,0-2.36,1.05-2.36,2.36,0,1.32,1.04,2.36,2.36,2.35Z"/><path class="cls-2" d="M30.06,28.03c0-1.09,0-2.19,0-3.28,0-.68.5-.97,1.1-.64,1.95,1.08,3.9,2.17,5.86,3.25.27.15.48.34.47.67,0,.33-.21.51-.48.66-1.94,1.07-3.88,2.13-5.8,3.23-.63.36-1.18-.04-1.16-.67.04-1.07.01-2.15.01-3.22ZM31.42,30.25c1.34-.75,2.65-1.48,4-2.23-1.36-.75-2.66-1.48-4-2.22v4.45Z"/><rect class="cls-2" x="28.72" y="17.23" width="1.32" height="1.31" rx=".65" ry=".65"/><rect class="cls-2" x="31.42" y="17.24" width="1.32" height="1.31" rx=".65" ry=".65"/><rect class="cls-2" x="34.14" y="17.23" width="1.31" height="1.31" rx=".65" ry=".65"/><rect class="cls-2" x="36.83" y="17.22" width="1.31" height="1.32" rx=".65" ry=".65"/></svg>