<?xml version="1.0" encoding="UTF-8"?><svg id="Calque_1" xmlns="http://www.w3.org/2000/svg" viewBox="0 0 31.14 31.14"><defs><style>.cls-1{fill:#1a3c6c;}.cls-1,.cls-2{stroke-width:0px;}.cls-2{fill:#fff;}</style></defs><path class="cls-1" d="M0,15.56C0,6.98,7,0,15.58,0c8.58,0,15.56,7,15.56,15.58,0,8.58-7,15.56-15.58,15.56C6.98,31.13,0,24.14,0,15.56ZM15.59,8.5c-2.63,0-5.27.03-7.9-.01-1.32-.02-2.18.97-2.16,2.16.03,3.28.03,6.56,0,9.85-.01,1.19.84,2.17,2.16,2.16,5.26-.03,10.52-.01,15.77-.01,1.34,0,2.14-.8,2.14-2.13,0-3.28-.02-6.56.01-9.85.01-1.19-.82-2.2-2.18-2.18-2.61.04-5.23.01-7.84.01Z"/><path class="cls-2" d="M15.59,8.5c2.61,0,5.23.03,7.84-.01,1.36-.02,2.19.99,2.18,2.18-.03,3.28-.01,6.56-.01,9.85,0,1.33-.8,2.13-2.14,2.13-5.26,0-10.52-.02-15.77.01-1.33,0-2.18-.97-2.16-2.16.03-3.28.03-6.56,0-9.85-.01-1.19.84-2.18,2.16-2.16,2.63.04,5.27.01,7.9.01ZM7.16,10.93c0,.15-.02.24-.02.34,0,3.07,0,6.14,0,9.21,0,.48.08.56.57.56,5.24,0,10.48,0,15.72,0,.47,0,.56-.09.56-.55,0-3.08,0-6.16,0-9.24,0-.09,0-.18-.02-.32-.17.13-.29.23-.41.32-2.46,1.95-4.92,3.91-7.38,5.86-.45.36-.78.36-1.23,0-1.88-1.49-3.76-2.99-5.64-4.48-.7-.56-1.41-1.12-2.16-1.71ZM8.72,10.11c.1.07.13.1.16.12,2.16,1.72,4.33,3.44,6.49,5.16.16.13.26.11.41-.01,1.66-1.33,3.33-2.65,4.99-3.97.53-.42,1.05-.84,1.63-1.3h-13.69Z"/><path class="cls-1" d="M7.16,10.93c.75.59,1.45,1.15,2.16,1.71,1.88,1.49,3.76,2.99,5.64,4.48.45.35.77.35,1.23,0,2.46-1.95,4.92-3.91,7.38-5.86.12-.09.24-.19.41-.32,0,.14.02.23.02.32,0,3.08,0,6.16,0,9.24,0,.46-.09.55-.56.55-5.24,0-10.48,0-15.72,0-.49,0-.57-.08-.57-.56,0-3.07,0-6.14,0-9.21,0-.1,0-.19.02-.34Z"/><path class="cls-1" d="M8.72,10.11h13.69c-.58.46-1.11.88-1.63,1.3-1.66,1.32-3.33,2.64-4.99,3.97-.15.12-.25.14-.41.01-2.16-1.72-4.33-3.44-6.49-5.16-.03-.03-.06-.05-.16-.12Z"/></svg>