<?xml version="1.0" encoding="UTF-8"?><svg id="Calque_1" xmlns="http://www.w3.org/2000/svg" viewBox="0 0 31.09 31.09"><defs><style>.cls-1{fill:#fff;}.cls-1,.cls-2{stroke-width:0px;}.cls-2{fill:#0476b5;}</style></defs><path class="cls-1" d="M31.09,15.55c0,8.59-6.96,15.55-15.55,15.55h0C6.96,31.09,0,24.13,0,15.55h0C0,6.96,6.96,0,15.55,0h0c8.59,0,15.55,6.96,15.55,15.55h0Z"/><path class="cls-2" d="M18.64,14.87l-.15,1.21c-.03.2-.2.35-.4.35h-1.96v5.06c-.21.02-.42.03-.63.03-.47,0-.94-.05-1.38-.14v-4.95h-1.51c-.14,0-.25-.11-.25-.25v-1.52c0-.14.11-.25.25-.25h1.51v-2.27c0-1.39,1.13-2.53,2.52-2.53h1.76c.14,0,.25.11.25.25v1.52c0,.14-.11.25-.25.25h-1.26c-.56,0-1.01.45-1.01,1.01v1.77h2.11c.24,0,.43.21.4.45Z"/></svg>