<svg id="Calque_1" xmlns="http://www.w3.org/2000/svg" viewBox="0 0 176.05 176.03"><defs><style>.cls-1{fill:#6975cf;stroke-width:0px;}</style></defs><path class="cls-1" d="M176.05,88.47c-.35,48.83-39.85,87.97-88.35,87.55C39.38,175.6-.44,135.4,0,87.47.45,38.76,39.86-.38,88.06,0c48.52.39,88.34,40.43,88,88.47ZM59.1,18.75c1.91,4.07,1.74,4.82-1.52,7.51-.5.41-1.02.82-1.48,1.28-1.35,1.36-1.41,2.67-.23,4.16,1.55,1.95,3.63,2.15,5.85,1.69,3.75-.77,6.49-3.07,9-5.85,2.64-2.92,5.1-3.15,7.98-.51,2.23,2.05,4.18,4.48,5.91,6.97,1.47,2.11.88,4.05-1.41,5.23-1.83.94-3.83,1.63-5.83,2.16-3.62.97-7.09,2.12-10.01,4.63-2.22,1.92-3.39,3.97-2.28,7.01,1.25,3.41.18,6.26-2.66,8.47-.98.76-1.94,1.54-2.91,2.31-2.17,1.74-3.06,3.9-2.53,6.73.39,2.09.66,4.26.56,6.38-.09,2.03-1.49,2.74-3.3,1.83-1.19-.6-2.12-1.71-3.27-2.42-1.46-.9-2.99-2.15-4.57-2.28-2.34-.2-4.83.17-7.12.79-3.41.92-4.59,3.48-3.5,6.86.97,3.02,2.88,5.38,5.43,7.22,2.7,1.94,5.51,2.18,8.4.41,1-.61,2.01-1.21,3-1.84,2.19-1.39,4.44-1.54,6.91-.7,1.64.56,3.45,1.16,5.11,1,4.68-.43,8.27,1.44,11.72,4.32,2.78,2.32,5.88,4.29,8.95,6.24,2.8,1.78,5.84,3.19,8.62,4.98,3.08,1.98,5.59,4.59,6.39,8.32,1.6,7.45.33,14.33-4.84,20.09-2.34,2.6-5.11,4.84-7.78,7.12-4.35,3.7-7.74,8.09-9.93,13.37-1.29,3.13-2.29,6.33-2.19,9.95,1.93.22,3.73.49,5.53.63,24.82,1.9,45.65-6.37,62.73-24.42,2.44-2.58,3.4-4.93,2.67-8.75-1.88-9.81-3-19.76-4.38-29.67-.48-3.45-2.2-4.98-5.66-4.77-1.17.07-2.32.35-3.49.43-3.36.23-6.79.92-10.08.49-7.21-.94-12.07-5.23-14.5-12.08-2.24-6.3.5-11.09,4.82-15.43,1.46-1.47,2.83-3.11,3.88-4.88,2.58-4.39,6.3-6.79,11.34-7.31,2.26-.23,4.51-.66,6.76-1.06,3.95-.7,7.26.39,10.25,3.09,1.76,1.59,3.8,2.92,5.85,4.13,1.33.78,2.77.21,3.68-.95.83-1.05,2.11-2.54,1.86-3.49-.61-2.32-1.98-4.43-3.06-6.66-4.47,2.99-5.14,2.74-5.79-2.08-.31-2.31-1.7-3.57-3.79-4.23-2-.63-3.77-.23-5.13,1.39-.96,1.15-1.76,2.42-2.64,3.63-2.33,3.18-5.56,4.21-9.31,3.61-3.13-.5-5.31-3.31-5.35-6.56-.03-2.65,1.19-3.72,4.93-4.75,1.27-.35,2.67-.97,3.52-1.91,2.55-2.84,4.86-5.9,7.41-9.05-1.67-1.33-3.55-2.83-5.44-4.32.04,1.22.42,2.17.7,3.15.83,2.86-.2,4.92-3.11,5.38-2,.31-4.18.21-6.17-.22-2.9-.63-3.58-2.61-1.99-5.16,1.68-2.68,4.09-4.45,7.46-5.25-12.36-7.96-25.66-11.95-40.34-12.2.18,1.18.35,2.12.46,3.08.33,2.78-.27,5.25-2.78,6.83-2.58,1.61-5.24,1.41-7.76-.17-1.21-.76-2.37-1.65-3.36-2.66-1.88-1.92-4.05-2.39-6.62-1.91-1.05.2-2.38.35-3.24-.11-2.36-1.27-4.2-.14-6.31.81ZM15.5,68.54c-11.01,41.69,14.98,79.83,47.44,90.05.01-.2.06-.39.03-.57-1.06-6.75-2.22-13.49-3.18-20.26-.67-4.69-2.71-8.37-6.86-10.8-1.07-.63-2.06-1.38-3.08-2.07-3.07-2.08-4.78-4.99-4.92-8.67-.13-3.38.06-6.78.04-10.16-.03-5.43-2.45-9.35-7.5-11.53-1.73-.75-3.47-1.48-5.23-2.18-3.38-1.33-5.64-3.68-7.32-6.93-2.88-5.59-6.11-11-9.42-16.87Z"/></svg>