<?xml version="1.0" encoding="UTF-8"?><svg id="Calque_1" xmlns="http://www.w3.org/2000/svg" viewBox="0 0 31.09 31.09"><defs><style>.cls-1{fill:#1a3c6c;}.cls-1,.cls-2{stroke-width:0px;}.cls-2{fill:#fff;}</style></defs><path class="cls-1" d="M31.09,15.55c0,8.59-6.96,15.55-15.55,15.55h0C6.96,31.09,0,24.13,0,15.55h0C0,6.96,6.96,0,15.55,0h0c8.59,0,15.55,6.96,15.55,15.55h0Z"/><path class="cls-2" d="M9.85,12.89c0-.83.22-1.65.73-2.36.16-.22.34-.43.53-.61.26-.25.54-.48.82-.7.41-.33.86-.31,1.23.06.21.22.41.45.58.7.32.47.65.94.83,1.49.19.56.11,1.05-.34,1.46-.23.21-.46.42-.71.59-.54.37-.62.84-.42,1.44.19.54.51,1,.86,1.44.46.58.95,1.14,1.53,1.61.32.26.66.5,1.08.59.35.08.66-.01.92-.26.25-.23.49-.47.74-.69.48-.42,1.01-.48,1.56-.17.24.14.48.29.69.47.36.3.71.62,1.06.95.12.11.21.25.29.4.21.38.18.75-.13,1.05-.44.42-.87.86-1.41,1.15-.73.4-1.5.55-2.33.49-1.08-.09-2.02-.52-2.9-1.12-1.09-.74-2-1.66-2.83-2.67-.74-.89-1.4-1.84-1.86-2.91-.33-.75-.53-1.53-.53-2.4Z"/></svg>