<?xml version="1.0" encoding="UTF-8"?><svg id="Calque_1" xmlns="http://www.w3.org/2000/svg" viewBox="0 0 31.09 31.09"><defs><style>.cls-1{fill:#1a3c6c;}.cls-1,.cls-2{stroke-width:0px;}.cls-2{fill:#fff;}</style></defs><path class="cls-1" d="M31.09,15.55c0,8.59-6.96,15.55-15.55,15.55h0C6.96,31.09,0,24.13,0,15.55h0C0,6.96,6.96,0,15.55,0h0c8.59,0,15.55,6.96,15.55,15.55h0Z"/><path class="cls-2" d="M20.77,13.09c0,1.06-.22,1.92-.66,2.71-1.43,2.59-2.86,5.18-4.29,7.77-.08.14-.16.26-.34.26-.18,0-.27-.12-.35-.26-1.43-2.58-2.85-5.16-4.28-7.75-.54-.97-.77-2.01-.64-3.11.19-1.7,1.02-3.04,2.47-3.96,1.02-.65,2.16-.91,3.36-.78,1.28.14,2.37.68,3.27,1.61.71.74,1.17,1.62,1.36,2.63.07.34.08.69.11.87ZM15.49,10.59c-1.43-.03-2.63,1.15-2.66,2.61-.03,1.45,1.14,2.66,2.6,2.68,1.46.03,2.66-1.15,2.68-2.62.02-1.46-1.15-2.65-2.63-2.68Z"/></svg>