<?xml version="1.0" encoding="UTF-8"?><svg id="Calque_1" xmlns="http://www.w3.org/2000/svg" viewBox="0 0 52 52"><defs><style>.cls-1{fill:#ee8c3d;}.cls-1,.cls-2{stroke-width:0px;}.cls-2{fill:#fff;}</style></defs><circle class="cls-1" cx="26" cy="26" r="26"/><path class="cls-2" d="M36.82,15.17c-2.88-2.88-6.72-4.47-10.81-4.47h0c-8.42,0-15.28,6.86-15.28,15.29,0,8.43,6.85,15.29,15.28,15.3h0c4.07,0,7.91-1.59,10.8-4.49,2.9-2.9,4.49-6.73,4.49-10.81,0-4.1-1.59-7.94-4.47-10.83ZM12.19,27.77s.01-.01.06-.03c.67-.25,1.24-.14,1.75.34.21.2.42.41.62.61.11.11.21.22.32.33.43.43.87.68,1.33.76.55.1.97.36,1.23.77.29.47.33,1.08.13,1.79-.05.16-.1.33-.19.45-.65.92-.81,1.99-.88,2.91-.01.17-.03.34-.05.5,0,0,0,0,0,0-.08-.08-.16-.17-.25-.25-.3-.31-.61-.63-.89-.96-1.73-2.05-2.8-4.46-3.18-7.15,0-.04,0-.06,0-.06ZM17.78,37.06c.04-.28.06-.56.09-.83.04-.46.09-.93.17-1.38.07-.35.22-.74.47-1.17.57-1.01.74-1.97.52-2.94-.27-1.14-1.01-1.9-2.15-2.2-.49-.13-.86-.34-1.15-.66-.2-.22-.42-.43-.63-.63l-.1-.09c-.62-.6-1.32-.9-2.09-.9-.26,0-.54.03-.82.11v-.12c0-.36,0-.7,0-1.04.02,0,.04-.02.05-.02.13-.01.27-.01.41-.02.2,0,.41,0,.62-.04.78-.11,1.41-.5,1.88-1.14.25-.35.56-.61.95-.78.26-.11.51-.25.79-.4,1.03-.57,1.58-1.48,1.57-2.61,0-1.3-.54-2.25-1.58-2.83-.3-.17-.61-.32-.93-.48-.08-.04-.17-.08-.26-.13,1.09-1.23,2.32-2.21,3.74-2.98,1.91-1.04,3.9-1.59,6.08-1.69-.8.93-1.87,1.46-3.27,1.62-1.19.14-1.97.81-2.26,1.95-.27,1.07.18,2.22,1.11,2.86.75.52,1.57.65,2.37.37,1.57-.55,3.11-.3,4.86.76,1.01.62,1.86,1.55,2.57,2.86.16.29.34.59.56.85.68.78,1.66.99,2.63.57.75-.32,1.29-.87,1.77-1.41.09-.11.19-.22.3-.28.14-.09.29-.11.44-.07.13.04.24.13.31.27.15.32.29.68.41,1.09.34,1.13,1.19,1.67,2.33,1.49.11-.02.21-.03.33-.05h0s0,0,0,0c.01.12.03.24.03.36.34,6.07-3.57,11.88-9.31,13.81-4.46,1.5-8.73.9-12.68-1.79-.13-.09-.16-.15-.14-.29ZM17.01,20.2c0,.65-.32,1.14-.96,1.45-.14.07-.28.14-.42.21-.14.07-.27.14-.41.21-.5.24-.89.58-1.18,1.01-.39.57-.93.8-1.79.74,0-.02,0-.05.01-.07.03-.18.06-.34.09-.51.4-1.9,1.17-3.68,2.29-5.28.08-.11.09-.11.2-.05.28.15.57.3.85.44.12.06.24.12.37.18.64.32.95.87.95,1.68ZM39.61,23.63c-.18.03-.35.06-.52.06-.32.01-.48-.25-.56-.48-.03-.1-.07-.2-.1-.31-.1-.32-.21-.65-.36-.96-.3-.63-.83-1.04-1.45-1.13-.09-.01-.18-.02-.28-.02-.55,0-1.09.25-1.5.7-.28.31-.6.65-.95.93-.38.3-.73.41-1.02.35-.3-.07-.57-.32-.8-.76-.9-1.71-2.05-2.94-3.53-3.77-1.5-.84-3.06-1.14-4.64-.91-.22.03-.43.1-.64.17-.09.03-.18.06-.28.09-.6.18-1.22-.04-1.57-.55-.35-.51-.33-1.09.07-1.6.18-.23.42-.36.75-.39,1.48-.14,2.66-.63,3.61-1.49.37-.34.69-.75,1-1.14l.14-.17c.09-.12.15-.13.26-.13,2.88.23,5.69,1.44,7.93,3.4,2.24,1.96,3.81,4.6,4.42,7.42.04.18.07.36.1.55,0,.04.01.07.02.11-.03,0-.07.01-.1.02Z"/><path class="cls-2" d="M19.52,27.43c.13.11.27.21.4.31.27.21.56.43.81.66.7.64,1.48.82,2.37.54.37-.12.54-.04.79.38.43.72.61,1.5.81,2.32l.14.6c.29,1.18.58,2.4,1.11,3.54.33.72.88,1.11,1.62,1.17.06,0,.11,0,.17,0,.66,0,1.2-.31,1.59-.9.11-.18.22-.36.33-.53.04-.07.09-.14.13-.22.05-.08.09-.15.14-.23.38-.64.74-1.25,1.29-1.74.34-.31.52-.76.52-1.34,0-.15,0-.3,0-.45,0-.32,0-.64.01-.96.01-.19.08-.39.19-.55.14-.2.3-.4.46-.59.12-.15.24-.3.36-.45.32-.44.45-.96.36-1.47-.09-.51-.4-.96-.85-1.26-.3-.2-.58-.36-.83-.5-.24-.13-.39-.31-.5-.57-.28-.7-.59-1.4-.86-2.01-.4-.91-1.22-1.34-2.2-1.15-.1.02-.2.04-.3.07-.2.05-.4.09-.59.1-.23.01-.46-.03-.63-.11-.38-.19-.78-.43-1.25-.74-.68-.46-1.31-.63-1.97-.54-.02,0-.04,0-.06,0-.05,0-.1,0-.14,0-.87-.07-1.54.27-2.04,1.03-.53.8-1.02,1.48-1.5,2.09-.45.58-.65,1.22-.61,1.98.04.66.28,1.16.75,1.54ZM30.36,30.71c0,.4.02.82,0,1.23-.01.21-.07.4-.14.46-.63.56-1.04,1.26-1.43,1.93-.11.19-.23.39-.35.58-.03.05-.07.11-.1.16-.06.1-.12.2-.19.29-.12.17-.31.25-.5.23-.18-.02-.32-.13-.39-.29-.23-.51-.49-1.12-.66-1.74-.14-.51-.27-1.04-.39-1.55-.15-.64-.31-1.3-.51-1.94-.17-.57-.46-1.17-.84-1.76-.33-.51-.84-.79-1.39-.79-.17,0-.33.02-.51.08-.62.18-1.07.08-1.51-.36-.2-.2-.43-.38-.65-.54-.1-.08-.21-.16-.31-.24-.38-.31-.5-1.01-.24-1.39.44-.64.9-1.28,1.35-1.9.19-.26.38-.53.57-.79.15-.21.36-.24.71-.23.06,0,.11,0,.17,0h.07s.03,0,.03,0c.4-.07.77.03,1.23.34.28.19.58.36.87.53.15.09.3.18.45.27.46.28.95.36,1.46.25.31-.07.63-.13.93-.19.39-.07.58.03.74.39.3.69.6,1.37.88,2.05.19.46.49.81.92,1.05.35.2.62.36.86.52.16.1.26.23.28.38.03.14-.02.3-.13.44-.23.3-.48.62-.79.99-.33.4-.5.87-.49,1.4v.12Z"/><path class="cls-2" d="M32.65,31.49c-.14.14-.23.31-.27.48-.1.46-.19.94-.28,1.39-.07.33-.13.66-.2.99-.06.3.02.55.24.76.14.14.28.28.42.42.15.15.3.3.45.44.19.18.38.28.57.28.02,0,.05,0,.07,0,.21-.03.4-.17.55-.42.41-.68.85-1.4,1.4-2.34.05-.09.09-.18.11-.25,0-.02.02-.05.03-.07l.02-.04v-.05s-.01-.07-.02-.1c0-.06-.01-.1-.02-.14l-.19-.94c-.09-.46-.18-.93-.28-1.39-.02-.13-.1-.51-.52-.62-.35-.09-.59.1-.74.25-.16.16-.33.33-.49.49-.28.28-.58.57-.86.87ZM33.32,34.12c.11-.4.21-.82.25-1.25.03-.41.27-.67.58-.96v.04c.07.33.14.64.19.94,0,.02,0,.04,0,.05-.27.45-.54.9-.81,1.36l-.11.18c-.12-.1-.14-.2-.1-.35Z"/></svg>