<?xml version="1.0" encoding="UTF-8"?><svg id="Calque_1" xmlns="http://www.w3.org/2000/svg" viewBox="0 0 243.92 375.86"><defs><style>.cls-1,.cls-2,.cls-3,.cls-4,.cls-5,.cls-6,.cls-7,.cls-8,.cls-9,.cls-10,.cls-11,.cls-12,.cls-13{stroke:#6975cf;}.cls-1,.cls-2,.cls-6,.cls-9,.cls-10,.cls-11{stroke-miterlimit:10;}.cls-1,.cls-12{fill:#1a3c6c;}.cls-2,.cls-4,.cls-8{fill:#edc883;}.cls-3,.cls-4,.cls-5,.cls-7,.cls-8,.cls-12,.cls-13{stroke-linejoin:round;}.cls-3,.cls-11{fill:#6975cf;}.cls-4,.cls-13{stroke-linecap:round;}.cls-5,.cls-10{fill:#8fbceb;}.cls-6{fill:#ee8c3d;}.cls-7{fill:#eb751f;}.cls-9{fill:#e5751f;}.cls-13{fill:#fff;}</style></defs><rect class="cls-1" x="37.38" y=".5" width="165.68" height="165.68" rx="22.76" ry="22.76"/><rect class="cls-2" x="54.25" y="15.45" width="39.26" height="36.43" rx="4.7" ry="4.7"/><path class="cls-11" d="M72.63,15.22v33.88s-6.38-2.93-15.21-.82V15.22s1.2-3.02,7.61-2.4,7.61,2.4,7.61,2.4Z"/><path class="cls-11" d="M75.11,15.22v33.88s6.38-2.93,15.21-.82V15.22s-1.2-3.02-7.61-2.4c-6.41.62-7.61,2.4-7.61,2.4Z"/><rect class="cls-10" x="146.93" y="15.45" width="39.26" height="36.43" rx="4.7" ry="4.7"/><path class="cls-9" d="M165.32,15.22v33.88s-6.38-2.93-15.21-.82V15.22s1.2-3.02,7.61-2.4,7.61,2.4,7.61,2.4Z"/><path class="cls-9" d="M167.8,15.22v33.88s6.38-2.93,15.21-.82V15.22s-1.2-3.02-7.61-2.4c-6.41.62-7.61,2.4-7.61,2.4Z"/><rect class="cls-11" x="100.59" y="15.45" width="39.26" height="36.43" rx="4.7" ry="4.7"/><path class="cls-10" d="M118.97,15.22v33.88s-6.38-2.93-15.21-.82V15.22s1.2-3.02,7.61-2.4,7.61,2.4,7.61,2.4Z"/><path class="cls-10" d="M121.45,15.22v33.88s6.38-2.93,15.21-.82V15.22s-1.2-3.02-7.61-2.4-7.61,2.4-7.61,2.4Z"/><rect class="cls-2" x="54.25" y="114.72" width="39.26" height="36.43" rx="4.7" ry="4.7"/><path class="cls-11" d="M72.63,114.48v33.88s-6.38-2.93-15.21-.82v-33.06s1.2-3.02,7.61-2.4c6.41.62,7.61,2.4,7.61,2.4Z"/><path class="cls-11" d="M75.11,114.48v33.88s6.38-2.93,15.21-.82v-33.06s-1.2-3.02-7.61-2.4c-6.41.62-7.61,2.4-7.61,2.4Z"/><rect class="cls-11" x="146.93" y="114.72" width="39.26" height="36.43" rx="4.7" ry="4.7"/><path class="cls-6" d="M165.32,114.48v33.88s-6.38-2.93-15.21-.82v-33.06s1.2-3.02,7.61-2.4c6.41.62,7.61,2.4,7.61,2.4Z"/><path class="cls-6" d="M167.8,114.48v33.88s6.38-2.93,15.21-.82v-33.06s-1.2-3.02-7.61-2.4c-6.41.62-7.61,2.4-7.61,2.4Z"/><rect class="cls-11" x="100.59" y="114.72" width="39.26" height="36.43" rx="4.7" ry="4.7"/><path class="cls-10" d="M118.97,114.48v33.88s-6.38-2.93-15.21-.82v-33.06s1.2-3.02,7.61-2.4c6.41.62,7.61,2.4,7.61,2.4Z"/><path class="cls-10" d="M121.45,114.48v33.88s6.38-2.93,15.21-.82v-33.06s-1.2-3.02-7.61-2.4-7.61,2.4-7.61,2.4Z"/><rect class="cls-2" x="146.93" y="65.08" width="39.26" height="36.43" rx="4.7" ry="4.7" transform="translate(333.12 166.6) rotate(180)"/><path class="cls-11" d="M167.8,64.85v33.88s6.38-2.93,15.21-.82v-33.06s-1.2-3.02-7.61-2.4-7.61,2.4-7.61,2.4Z"/><path class="cls-11" d="M165.32,64.85v33.88s-6.38-2.93-15.21-.82v-33.06s1.2-3.02,7.61-2.4c6.41.62,7.61,2.4,7.61,2.4Z"/><rect class="cls-10" x="54.25" y="65.08" width="39.26" height="36.43" rx="4.7" ry="4.7" transform="translate(147.75 166.6) rotate(180)"/><path class="cls-9" d="M75.12,64.85v33.88s6.38-2.93,15.21-.82v-33.06s-1.2-3.02-7.61-2.4-7.61,2.4-7.61,2.4Z"/><path class="cls-9" d="M72.64,64.85v33.88s-6.38-2.93-15.21-.82v-33.06s1.2-3.02,7.61-2.4,7.61,2.4,7.61,2.4Z"/><rect class="cls-6" x="100.59" y="65.08" width="39.26" height="36.43" rx="4.7" ry="4.7" transform="translate(240.44 166.6) rotate(180)"/><path class="cls-11" d="M121.46,64.85v33.88s6.38-2.93,15.21-.82v-33.06s-1.2-3.02-7.61-2.4-7.61,2.4-7.61,2.4Z"/><path class="cls-11" d="M118.98,64.85v33.88s-6.38-2.93-15.21-.82v-33.06s1.2-3.02,7.61-2.4,7.61,2.4,7.61,2.4Z"/><path class="cls-3" d="M86.14,168.72l-30.9-1.85v-5.63s.8-6.75.8-6.75c.38-3.24-.69-6.47-2.92-8.85l-7.66-8.14,2.1-4.89-13.28-6.29-14.85,13.13c-2.13,1.89-3.45,4.53-3.68,7.37l-3.14,38.91,30.06,8.39,20.27-3.49,2.8-5.59-13.28-3.49,34.91-5.87-1.21-6.96Z"/><path class="cls-8" d="M86.14,168.72l8.24-2.55h11.72s-.73,3.35-3.43,4.12l4.29,4.27,6.99-.7s-2.8,3.67-5.59,5.33c-2.8,1.66-8.31.81-8.31.81l-12.7-4.31-1.21-6.96Z"/><path class="cls-8" d="M65.73,185.05h14.57s7.06,5.23,7.06,5.23c0,0-3.7,3.14-8.47,0l4.31,4.55,13.03-.7s-4.34,6.89-10.08,7.64c-5.74.75-14.52,0-14.52,0l-8.7-11.13,2.8-5.59Z"/><path class="cls-8" d="M47.55,132.62l2.43-3.53,4.2.97c1.87.43,3.71-.78,4.05-2.67l1.21-6.65h0c2.27-.97,2.74-3.98.89-5.6l-1.59-1.39,1.79-9.18-17.17-9.69-12.88,19.11,4.5,8.85-.7,3.49,13.28,6.29Z"/><path class="cls-12" d="M34.97,122.84l4.19.7v-6.73s3.28,3.37,3.28,3.37l.92-3.62s-3.49-2.8-2.1-6.29,5.59-2.8,6.29,2.8l1.4-5.59s5.59-.7,6.99-4.19l3.34,7.67s5.04.01,4.35-6.28c-.44-3.94-10.45-8.97-17.89-12.18-4.38-1.89-9.47.09-11.44,4.43l-.03.06-5.03,3.55c-3.77,2.66-4.65,7.89-1.95,11.64l7.68,10.67Z"/><path class="cls-5" d="M12.6,185.75l-10.54,29.76c-1.37,3.88-1.85,8.01-1.4,12.1l5.62,50.72v53.09s24.18,3.46,24.18,3.46l4.5-40.8,9.74,31.39,25.91-2.74-32.05-124.98,4.09-3.63-30.06-8.39Z"/><path class="cls-12" d="M22.61,333.76s-.92,18.35,1.88,23.94c1.59,3.17,3.22,6.57,4.34,8.91,1.07,2.23.59,4.93-1.25,6.58-1.62,1.45-4.01,2.64-7.28,1.98-6.99-1.4-7.69-7.69-7.69-7.69,0,0,2.8-10.48,2.1-17.47-.7-6.99-3.61-17.9-3.61-17.9l11.52,1.65Z"/><path class="cls-3" d="M20.29,375.17c-6.99-1.4-7.69-7.69-7.69-7.69,0,0,2.43-9.13,2.19-16.03,3.3-2.42,6.13-1.59,8.2-.06.31,2.59.78,4.87,1.5,6.3,1.59,3.17,3.22,6.57,4.34,8.91,1.07,2.23.59,4.93-1.25,6.58-1.62,1.45-4.01,2.64-7.28,1.98Z"/><path class="cls-12" d="M70.62,322.75s1.93,25.57,23.23,38.6c1.44.88,2.46,2.3,2.78,3.96l.55,2.88s-14.44,3.6-20.15-5.54c0,0-6.41,1.35-12-2.85l2.8-15.38-14.59-19.83,17.38-1.84Z"/><path class="cls-3" d="M77.03,362.64s-6.41,1.35-12-2.85l2.17-11.92,5.52,4.23,7.15-4.21c3.34,4.92,7.86,9.7,13.98,13.45,1.44.88,2.46,2.3,2.78,3.96l.55,2.88s-14.44,3.6-20.15-5.54Z"/><path class="cls-5" d="M159.19,179.62v-10.03s4.58-2.18,8.59,0l13.09-29.28,4.89-2.1.7-4.89,16.08-15.38,7.69,6.29,8.11,4.71c8.48,4.92,13.96,13.74,14.63,23.52l1.86,27.16,2.36,4.04c2.81,4.8,3.07,10.69.68,15.72h0s-43.72,6.64-43.72,6.64l-4.19-14.68s-6.29,3.49-11.18-1.4l-1.4-13.28-18.19,2.96Z"/><path class="cls-7" d="M202.54,120.74l-2.1-11.88-9.09-16.08h-10.99s-3.69,3.49-3.69,3.49l-3.05,4.79c-1.12,1.76-1.1,4.02.06,5.76l.89,1.33h0c-1.33.88-2.18,2.32-2.33,3.91l-.33,3.63c-.07.79.55,1.48,1.34,1.49l3.41.05,9.09,9.79,6.29,6.99,2.1-4.19,8.39-9.09Z"/><path class="cls-5" d="M194.15,110.95l7.39,4.14s1-9.73,2.4-14.62-4.89-5.25-4.89-5.25l-.51-2.42c-.51-2.42-2.72-4.09-5.19-3.92l-11.84.82c-2.39.16-4.32,2.01-4.58,4.4l-.24,2.18,8.39-2.1-1.29,2.57c-.89,1.78-.48,3.94,1.01,5.27l2.43,2.17-1.46,12.36-1.93-1.62c-1.07-.9-2.62-.96-3.76-.14l-1.71,1.23c-1.29.93-1.71,2.74-.83,4.07.15.23.32.45.53.65l-.7,4.89,3.49,4.19,13.28-9.09s-4.89-11.18-4.89-15.38,4.89-4.19,5.59-1.4-.7,6.99-.7,6.99Z"/><path class="cls-7" d="M159.19,169.59l-25.15-4.11-12.31-1.3c-.64-.07-1.28.02-1.88.26l-6.08,2.43,6.42,2.72s-.83,3.33-2.92,3.45c-2.1.12-2.8-3.37-2.8-3.37l-2.8,1.4s-.7,6.99,3.49,7.69c0,0,.7,4.89,6.29,4.19,5.59-.7,15.69-9.4,15.69-9.4l13.67,8h-11.18s-8.39,4.89-8.39,4.89l4.19,1.02-2.1,5.27-6.99-2.1s3.49,4.89,12.58,6.29l1.72.57c1.56.52,3.27.27,4.62-.67l3.44-2.41c.91-.64,1.6-1.55,1.95-2.61l1.55-4.66,26.56,2.8-1.4-13.28-18.19,2.96v-10.03Z"/><path class="cls-4" d="M104.73,162.46l-15.08-19.18,3.38-1.53c.54-.25,1.37.5,1.47,1.31l.35,2.8,1.43-.17c.55-.06,1.2.7,1.2,1.42v2.2s8.31,10.92,8.31,10.92c1.81-2.43,4.7-1.86,6.81,1.12,2.16,3.06,3.01,8.01,1.91,11.51-1.23,3.88-4.47,4.86-7.28,1.58-2.6-3.03-3.59-8.24-2.5-11.98Z"/><path class="cls-4" d="M105.97,162.46l-15.08-19.18,3.38-1.53c.54-.25,1.37.5,1.47,1.31l.35,2.8,1.43-.17c.55-.06,1.2.7,1.2,1.42v2.2s8.31,10.92,8.31,10.92c1.81-2.43,4.7-1.86,6.81,1.12,2.16,3.06,3.01,8.01,1.91,11.51-1.23,3.88-4.47,4.86-7.28,1.58-2.6-3.03-3.59-8.24-2.5-11.98Z"/><path class="cls-13" d="M111.63,170.2c.68.86,1.51.72,1.87-.26.35-.95.12-2.38-.51-3.22-.64-.85-1.48-.81-1.87.12-.4.97-.17,2.49.51,3.36Z"/><path class="cls-3" d="M237.87,199.38s-4.88-2.87-11.37-1.61c-6.49,1.26-32.35,8.25-32.35,8.25l-15.38,83.91-11.18,57.99,20.27,4.89,20.97-69.9,11.29,69.9s6.88,6.29,20.86-2.1l2.17-40.21c.41-7.63-.42-15.27-2.46-22.63l-3.84-13.82,3.93-47.15c.61-7.27.08-14.59-1.57-21.7l-1.35-5.83Z"/><path class="cls-8" d="M240.99,350.71s3.15,8.8,2.28,19.43l-5.07,2.24-4.19,2.8h-17.02v-.93c0-1.51.72-2.93,1.95-3.82,3.91-2.81,12.44-9.58,13.88-16.1l8.17-3.62Z"/><path class="cls-8" d="M177.86,350.71s3.01,11.88,1.61,16.78l-10.48,2.1v-3.81s-11.87,3.81-11.87,3.81l-16.79-1.4v-.21c0-2.26,1.6-4.21,3.82-4.62,5.32-.99,15.21-4.31,23.44-15.44l10.27,2.8Z"/><path class="cls-7" d="M119.85,164.44l-6.08,2.43s-.35,2.3,4.37,1.85"/><polygon class="cls-5" points="135.44 187.46 98.77 176.6 97.61 181.43 126.35 190.64 133.34 192.74 135.44 187.46"/></svg>