<?xml version="1.0" encoding="UTF-8"?><svg id="Calque_1" xmlns="http://www.w3.org/2000/svg" viewBox="0 0 31.09 31.09"><defs><style>.cls-1{fill:#fff;}.cls-1,.cls-2{stroke-width:0px;}.cls-2{fill:#0476b5;}</style></defs><path class="cls-1" d="M31.09,15.55c0,8.59-6.96,15.55-15.55,15.55h0C6.96,31.09,0,24.13,0,15.55h0C0,6.96,6.96,0,15.55,0h0c8.59,0,15.55,6.96,15.55,15.55h0Z"/><path class="cls-2" d="M17,14.62l4.07-4.36h-1.55l-3.2,3.42-2.45-3.42h-4.23l4.28,5.98-4.28,4.58h1.55l3.41-3.64,2.61,3.64h4.23l-4.44-6.21ZM11.83,11.38h1.48l5.96,8.32h-1.48l-5.96-8.32Z"/></svg>