<svg xmlns="http://www.w3.org/2000/svg" role="img" focusable="false" width="196" height="44.357" viewBox="0 0 196 44.357" class="main-header-logo-site"><defs><style>.a-s0 {
                fill: #ffe74b;
            }

            .b-s0 {
                fill: #168e9d;
            }

            .c-s0 {
                fill: #c0254b;
            }

            .d-s0 {
                fill: #161615;
            }</style></defs><g transform="translate(-79.331 -201.366)"><g transform="translate(79.331 201.366)"><path class="a-s0" d="M109.3,239.37a15.3,15.3,0,0,0-3.715-5.623,16.13,16.13,0,0,0-5.849-3.489,23.033,23.033,0,0,0-7.656-1.205h-9.99a2.441,2.441,0,0,0-2.762,2.762v30.373a2.44,2.44,0,0,0,2.762,2.761h9.99a22.594,22.594,0,0,0,7.656-1.23,16.221,16.221,0,0,0,5.849-3.54,15.5,15.5,0,0,0,3.715-5.673,22.593,22.593,0,0,0,0-15.136Z" transform="translate(-79.331 -220.592)"></path><path class="b-s0" d="M136.666,211.683a15.307,15.307,0,0,0-3.715-5.623,16.132,16.132,0,0,0-5.849-3.489,23.032,23.032,0,0,0-7.656-1.205h-9.99a2.441,2.441,0,0,0-2.761,2.762V234.5a2.44,2.44,0,0,0,2.761,2.761h9.99a22.6,22.6,0,0,0,7.656-1.229,16.224,16.224,0,0,0,5.849-3.54,15.5,15.5,0,0,0,3.715-5.673,22.593,22.593,0,0,0,0-15.136Z" transform="translate(-98.332 -201.366)"></path><path class="c-s0" d="M124.588,233.747a16.133,16.133,0,0,0-5.849-3.489,23.033,23.033,0,0,0-7.656-1.205h-4.389v24.673a2.44,2.44,0,0,0,2.761,2.761h9.99a22.6,22.6,0,0,0,7.656-1.229c.368-.132.711-.288,1.062-.438.044-.107.1-.2.14-.313a22.593,22.593,0,0,0,0-15.136A15.3,15.3,0,0,0,124.588,233.747Z" transform="translate(-98.332 -220.592)"></path></g><g transform="translate(131.551 201.874)"><path class="d-s0" d="M250.2,221.621c0-5.484,3.706-9.821,9.154-9.821a7.307,7.307,0,0,1,6.374,3.224V205.8a1.434,1.434,0,0,1,1.593-1.556h1.631a1.407,1.407,0,0,1,1.557,1.556v23.681a1.407,1.407,0,0,1-1.557,1.557h-1.631a1.434,1.434,0,0,1-1.593-1.557v-1.26a7.307,7.307,0,0,1-6.374,3.224C253.907,231.442,250.2,227.106,250.2,221.621Zm15.639,0c-.037-3.372-2.261-5.856-5.559-5.856-3.372,0-5.3,2.669-5.3,5.856,0,3.224,1.927,5.856,5.3,5.856C263.579,227.477,265.8,224.993,265.84,221.621Z" transform="translate(-250.201 -203.87)"></path><path class="d-s0" d="M340.656,205.808a2.769,2.769,0,0,1,3-2.78,2.788,2.788,0,1,1-3,2.78Zm.63,22.828V212.96a1.434,1.434,0,0,1,1.557-1.594h1.667a1.434,1.434,0,0,1,1.557,1.594v15.676a1.407,1.407,0,0,1-1.557,1.557h-1.667A1.407,1.407,0,0,1,341.286,228.636Z" transform="translate(-313.012 -203.028)"></path><path class="d-s0" d="M384.67,229.477V205.8a1.407,1.407,0,0,1,1.556-1.556h1.668a1.407,1.407,0,0,1,1.557,1.556v23.681a1.407,1.407,0,0,1-1.557,1.557h-1.668A1.407,1.407,0,0,1,384.67,229.477Z" transform="translate(-343.575 -203.87)"></path><path class="d-s0" d="M424.562,205.808a2.769,2.769,0,0,1,3-2.78,2.788,2.788,0,1,1-3,2.78Zm.63,22.828V212.96a1.434,1.434,0,0,1,1.556-1.594h1.668a1.434,1.434,0,0,1,1.556,1.594v15.676a1.407,1.407,0,0,1-1.556,1.557h-1.668A1.407,1.407,0,0,1,425.192,228.636Z" transform="translate(-371.275 -203.028)"></path><path class="d-s0" d="M464.09,238.947c0-5.484,4-9.969,10.747-9.969a11.4,11.4,0,0,1,5.781,1.593,1.35,1.35,0,0,1,.371,2.187l-.445.556c-.593.815-1.26.852-2.187.408a7.5,7.5,0,0,0-3.261-.741c-3.595,0-6.226,2.409-6.226,5.818,0,3.447,2.631,5.856,6.226,5.856a8.115,8.115,0,0,0,3.261-.741c.927-.445,1.631-.407,2.187.37l.445.593c.593.815.407,1.779-.816,2.409a11.1,11.1,0,0,1-5.336,1.334C468.241,248.619,464.09,244.321,464.09,238.947Z" transform="translate(-398.723 -221.047)"></path><path class="d-s0" d="M536.964,238.8a10.179,10.179,0,1,1,10.154,9.821A9.914,9.914,0,0,1,536.964,238.8Zm15.713.037a5.563,5.563,0,1,0-5.559,5.782A5.669,5.669,0,0,0,552.677,238.836Z" transform="translate(-449.326 -221.047)"></path><path class="d-s0" d="M625.115,246.655V230.979a1.434,1.434,0,0,1,1.556-1.594h1.63a1.462,1.462,0,0,1,1.593,1.594v1.742a5.473,5.473,0,0,1,5.485-3.743,5.921,5.921,0,0,1,5.67,3.595,6.471,6.471,0,0,1,6.226-3.595c4.669,0,7.041,3.372,7.041,8.524v9.153a1.407,1.407,0,0,1-1.556,1.557H651.13a1.434,1.434,0,0,1-1.593-1.557v-9.042c0-3.187-1.334-4.632-3.188-4.632-1.668,0-4.113,1.223-4.224,5.67v8a1.434,1.434,0,0,1-1.594,1.557H638.9a1.407,1.407,0,0,1-1.556-1.557v-9.042c0-3.187-1.371-4.632-3.224-4.632-1.779,0-4.225,1.371-4.225,5.966v7.708a1.434,1.434,0,0,1-1.593,1.557h-1.63A1.407,1.407,0,0,1,625.115,246.655Z" transform="translate(-510.537 -221.047)"></path><g transform="translate(0.143 33.236)"><path class="d-s0" d="M250.669,318.664a.33.33,0,0,1,.373-.373h.362a.33.33,0,0,1,.373.373V325.3h3.21a.329.329,0,0,1,.373.373v.226a.33.33,0,0,1-.373.373h-3.945a.33.33,0,0,1-.373-.373Z" transform="translate(-250.669 -316.302)"></path><path class="d-s0" d="M276.928,318.664a.33.33,0,0,1,.373-.373h3.888a.33.33,0,0,1,.373.373v.226a.33.33,0,0,1-.373.373h-3.153v2.5h2.5a.33.33,0,0,1,.373.373v.226a.33.33,0,0,1-.373.373h-2.5V325.3h3.346a.33.33,0,0,1,.373.373v.226a.33.33,0,0,1-.373.373H277.3a.33.33,0,0,1-.373-.373Z" transform="translate(-268.903 -316.302)"></path><path class="d-s0" d="M321.5,318.664a.33.33,0,0,1,.373-.373h2.148a6.323,6.323,0,0,1,.916.051,2.221,2.221,0,0,1,.576.164,2.077,2.077,0,0,1,.915.791,2.367,2.367,0,0,1,.339,1.3,2.5,2.5,0,0,1-.378,1.368,1.942,1.942,0,0,1-1.046.825v.023a.359.359,0,0,0,.068.09,2.6,2.6,0,0,1,.169.272l1.436,2.656a.264.264,0,0,1-.249.441h-.452a.447.447,0,0,1-.441-.26l-1.56-2.916H322.6v2.8a.33.33,0,0,1-.373.373h-.362a.33.33,0,0,1-.373-.373Zm2.713,3.459a1.372,1.372,0,0,0,1.04-.4,1.676,1.676,0,0,0,.2-1.837,1.128,1.128,0,0,0-.56-.486,1.577,1.577,0,0,0-.362-.1,3.88,3.88,0,0,0-.588-.034H322.6v2.859Z" transform="translate(-299.85 -316.302)"></path><path class="d-s0" d="M351.711,314.144a.33.33,0,0,1,.373-.373h3.888a.33.33,0,0,1,.373.373v.226a.33.33,0,0,1-.373.373h-3.154v2.5h2.5a.33.33,0,0,1,.373.373v.226a.33.33,0,0,1-.373.373h-2.5v2.566h3.346a.33.33,0,0,1,.373.373v.226a.33.33,0,0,1-.373.373h-4.081a.33.33,0,0,1-.373-.373Zm2.136-1.051a.286.286,0,0,1,.034-.294l.452-.757a.476.476,0,0,1,.441-.26h.328q.237,0,.294.13t-.09.322l-.554.757a.556.556,0,0,1-.452.226h-.192A.269.269,0,0,1,353.847,313.093Z" transform="translate(-320.831 -311.782)"></path><path class="d-s0" d="M378.117,325.274a.434.434,0,0,1-.141-.226.373.373,0,0,1,.1-.294l.192-.271a.343.343,0,0,1,.509-.068c.068.053.158.115.271.187a3.417,3.417,0,0,0,.39.209,3.145,3.145,0,0,0,.492.175,2.246,2.246,0,0,0,.588.073,1.564,1.564,0,0,0,1.023-.311,1.02,1.02,0,0,0,.379-.831.979.979,0,0,0-.283-.723,2.81,2.81,0,0,0-.712-.5q-.43-.221-.927-.43a5.963,5.963,0,0,1-.927-.486,2.512,2.512,0,0,1-.712-.684,1.762,1.762,0,0,1-.282-1.029,2.017,2.017,0,0,1,.746-1.61,2.551,2.551,0,0,1,.826-.447,3.2,3.2,0,0,1,1.017-.158,3.445,3.445,0,0,1,.667.062,4.227,4.227,0,0,1,.576.152,2.842,2.842,0,0,1,.452.2,2.3,2.3,0,0,1,.306.2.36.36,0,0,1,.113.509l-.158.282q-.1.181-.232.186a.486.486,0,0,1-.277-.085,5.724,5.724,0,0,0-.594-.3,2.14,2.14,0,0,0-.876-.164,1.688,1.688,0,0,0-1.028.3.963.963,0,0,0-.407.82.928.928,0,0,0,.283.7,2.757,2.757,0,0,0,.712.48q.429.209.927.407a5.115,5.115,0,0,1,.927.48,2.56,2.56,0,0,1,.712.7,1.833,1.833,0,0,1,.282,1.057,2.31,2.31,0,0,1-.169.887,2.02,2.02,0,0,1-.5.718,2.444,2.444,0,0,1-.8.486,2.96,2.96,0,0,1-1.068.181,3.71,3.71,0,0,1-.808-.085,3.981,3.981,0,0,1-.684-.215,4.165,4.165,0,0,1-.537-.271A3.175,3.175,0,0,1,378.117,325.274Z" transform="translate(-339.066 -315.994)"></path><path class="d-s0" d="M406.891,318.664a.33.33,0,0,1,.373-.373h3.888a.33.33,0,0,1,.373.373v.226a.33.33,0,0,1-.373.373H408v2.5h2.5a.33.33,0,0,1,.373.373v.226a.33.33,0,0,1-.373.373H408V325.3h3.346a.329.329,0,0,1,.373.373v.226a.33.33,0,0,1-.373.373h-4.081a.33.33,0,0,1-.373-.373Z" transform="translate(-359.148 -316.302)"></path><path class="d-s0" d="M434.7,318.6a.406.406,0,0,1,.418-.305h.543a.406.406,0,0,1,.418.305l2.622,7.245a.326.326,0,0,1-.017.311.33.33,0,0,1-.288.119h-.384a.405.405,0,0,1-.418-.3l-.712-1.99h-3.007l-.7,1.99a.388.388,0,0,1-.407.3h-.384a.329.329,0,0,1-.294-.119.339.339,0,0,1-.011-.311Zm1.887,4.453-.882-2.532q-.056-.158-.107-.345t-.1-.367c-.03-.136-.064-.275-.1-.418h-.023c-.046.143-.083.282-.113.418q-.057.181-.1.367a3.452,3.452,0,0,1-.1.345l-.893,2.532Z" transform="translate(-376.617 -316.302)"></path><path class="d-s0" d="M464.477,318.664a.33.33,0,0,1,.373-.373h.373a.325.325,0,0,1,.362.373v4.77a1.855,1.855,0,0,0,.553,1.43,2.356,2.356,0,0,0,2.939,0,1.87,1.87,0,0,0,.554-1.441v-4.759a.33.33,0,0,1,.373-.373h.373a.33.33,0,0,1,.373.373v4.781a3.117,3.117,0,0,1-.226,1.209,2.7,2.7,0,0,1-.639.933,2.886,2.886,0,0,1-.989.6,3.636,3.636,0,0,1-1.277.215,3.683,3.683,0,0,1-1.283-.215,2.875,2.875,0,0,1-.995-.6,2.692,2.692,0,0,1-.638-.933,3.11,3.11,0,0,1-.226-1.209Z" transform="translate(-399.135 -316.302)"></path><path class="d-s0" d="M515.367,318.664a.33.33,0,0,1,.373-.373h2.272a4.922,4.922,0,0,1,1.662.266,3.536,3.536,0,0,1,1.277.774,3.414,3.414,0,0,1,.819,1.249,5.113,5.113,0,0,1,0,3.385,3.4,3.4,0,0,1-.819,1.255,3.6,3.6,0,0,1-1.277.78,4.832,4.832,0,0,1-1.662.271H515.74a.33.33,0,0,1-.373-.373Zm2.566,6.635a3.592,3.592,0,0,0,1.227-.2,2.483,2.483,0,0,0,1.537-1.532,3.738,3.738,0,0,0,.209-1.3,3.592,3.592,0,0,0-.215-1.294,2.626,2.626,0,0,0-.6-.944,2.5,2.5,0,0,0-.938-.576,3.657,3.657,0,0,0-1.215-.192h-1.458V325.3Z" transform="translate(-434.472 -316.302)"></path><path class="d-s0" d="M549.393,318.664a.33.33,0,0,1,.373-.373h.373a.325.325,0,0,1,.361.373v4.77a1.854,1.854,0,0,0,.554,1.43,2.356,2.356,0,0,0,2.939,0,1.869,1.869,0,0,0,.554-1.441v-4.759a.33.33,0,0,1,.373-.373h.373a.33.33,0,0,1,.373.373v4.781a3.117,3.117,0,0,1-.226,1.209,2.7,2.7,0,0,1-.639.933,2.886,2.886,0,0,1-.989.6,3.636,3.636,0,0,1-1.277.215,3.685,3.685,0,0,1-1.283-.215,2.873,2.873,0,0,1-.994-.6,2.688,2.688,0,0,1-.639-.933,3.117,3.117,0,0,1-.226-1.209Z" transform="translate(-458.1 -316.302)"></path><path class="d-s0" d="M600.285,318.664a.33.33,0,0,1,.373-.373h.362a.33.33,0,0,1,.373.373V325.3h3.21a.33.33,0,0,1,.373.373v.226a.33.33,0,0,1-.373.373h-3.945a.33.33,0,0,1-.373-.373Z" transform="translate(-493.439 -316.302)"></path><path class="d-s0" d="M626.543,318.664a.33.33,0,0,1,.373-.373h.362a.33.33,0,0,1,.373.373V325.9a.33.33,0,0,1-.373.373h-.362a.33.33,0,0,1-.373-.373Z" transform="translate(-511.672 -316.302)"></path><path class="d-s0" d="M641.377,318.721a.338.338,0,0,1,.011-.311.328.328,0,0,1,.294-.119h.43a.406.406,0,0,1,.418.305l1.876,5.335q.056.158.107.356t.1.356q.045.2.1.384h.023q.056-.181.1-.384.045-.158.1-.356t.107-.356l1.9-5.335a.406.406,0,0,1,.418-.305h.418a.328.328,0,0,1,.294.119.339.339,0,0,1,.011.311l-2.656,7.245a.406.406,0,0,1-.418.3h-.542a.424.424,0,0,1-.429-.3Z" transform="translate(-521.95 -316.302)"></path><path class="d-s0" d="M674.66,318.664a.33.33,0,0,1,.373-.373h2.148a6.319,6.319,0,0,1,.916.051,2.215,2.215,0,0,1,.576.164,2.077,2.077,0,0,1,.915.791,2.367,2.367,0,0,1,.339,1.3,2.506,2.506,0,0,1-.378,1.368,1.943,1.943,0,0,1-1.046.825v.023a.357.357,0,0,0,.068.09,2.633,2.633,0,0,1,.17.272l1.435,2.656a.264.264,0,0,1-.249.441h-.452a.447.447,0,0,1-.441-.26l-1.56-2.916h-1.707v2.8a.33.33,0,0,1-.373.373h-.362a.33.33,0,0,1-.373-.373Zm2.713,3.459a1.372,1.372,0,0,0,1.04-.4,1.677,1.677,0,0,0,.2-1.837,1.129,1.129,0,0,0-.56-.486,1.581,1.581,0,0,0-.362-.1,3.874,3.874,0,0,0-.588-.034h-1.334v2.859Z" transform="translate(-545.084 -316.302)"></path><path class="d-s0" d="M704.876,318.664a.33.33,0,0,1,.373-.373h3.888a.33.33,0,0,1,.373.373v.226a.33.33,0,0,1-.373.373h-3.154v2.5h2.5a.33.33,0,0,1,.373.373v.226a.33.33,0,0,1-.373.373h-2.5V325.3h3.346a.33.33,0,0,1,.373.373v.226a.33.33,0,0,1-.373.373h-4.08a.33.33,0,0,1-.373-.373Z" transform="translate(-566.065 -316.302)"></path></g></g></g></svg>