<svg viewBox="0 0 1000 300" color="colored" class="colored"><style>.logo-color-1{fill:#63718a}.logo-color-2{fill:#122e5f} .white .logo-color-1{fill:#ffffff} .white .logo-color-2{fill:#ffffff}</style><path class="logo-color-1" d="M306.2 166.8h89.2v15.1H289.3V15.3h103.3v15.1h-86.4v57.2h80.7v15.1h-80.7v64.1zM438 181.8h-16V4h16v177.8zM573.5 123.5v3.5c0 1.2-.1 2.6-.2 4H482c.1 5.5 1.2 10.6 3.3 15.5s4.9 9.1 8.5 12.7c3.6 3.6 7.8 6.5 12.7 8.6 4.9 2.1 10.1 3.2 15.8 3.2 8.3 0 15.5-1.9 21.5-5.8s10.6-8.3 13.8-13.3l12 9.4c-6.6 8.3-13.8 14.3-21.7 17.9-7.9 3.6-16.4 5.4-25.5 5.4-8.2 0-15.8-1.4-22.7-4.4-7-2.9-13-6.9-18-12.1-5-5.2-9-11.3-11.9-18.4-2.9-7-4.4-14.8-4.4-23s1.4-16 4.2-23c2.8-7 6.7-13.2 11.8-18.4 5-5.2 10.9-9.2 17.6-12.1 6.7-2.9 14-4.4 21.9-4.4 8.7 0 16.3 1.4 22.8 4.4 6.6 2.9 12.1 6.8 16.4 11.8s7.7 10.7 10 17.3c2.2 6.6 3.4 13.7 3.4 21.2zm-16.3-5.2c-.5-10.3-3.8-18.9-10-25.8s-15-10.2-26.5-10.2c-5.4 0-10.3 1-14.8 2.9-4.5 2-8.5 4.6-12 8-3.4 3.4-6.2 7.2-8.2 11.5-2.1 4.3-3.2 8.8-3.5 13.5l75 .1zM685 96.9c-2.7-4.2-6.5-7.7-11.6-10.5-5.1-2.7-10.6-4.1-16.6-4.1-6.4 0-12.2 1.1-17.4 3.4-5.2 2.3-9.6 5.4-13.3 9.4-3.7 4-6.5 8.7-8.5 14.1s-2.9 11.3-2.9 17.5c0 6.3 1 12.1 2.9 17.4 1.9 5.4 4.7 10 8.3 14 3.6 4 8 7.2 13.2 9.4 5.2 2.3 11 3.4 17.4 3.4 7 0 13-1.3 17.9-4 4.9-2.7 8.8-6.1 12-10.3l12 9a52.12 52.12 0 0 1-17.3 13.9c-6.8 3.4-15 5.2-24.6 5.2-9 0-17-1.4-24.2-4.4-7.2-2.9-13.4-6.9-18.5-12.1-5.1-5.2-9-11.3-11.9-18.4-2.8-7-4.2-14.8-4.2-23s1.4-16 4.2-23c2.8-7 6.8-13.2 11.9-18.4 5.1-5.2 11.3-9.2 18.5-12.1 7.2-2.9 15.3-4.4 24.2-4.4 7.3 0 14.9 1.6 22.5 4.8 7.6 3.2 13.8 8 18.5 14.3L685 96.9zM787.3 85.1h-31.1v64.2c0 4.1.4 7.5 1.2 10.1.8 2.7 1.9 4.7 3.4 6.2s3.2 2.5 5.3 3.1 4.2.8 6.6.8c2.2 0 4.5-.3 6.9-.9 2.4-.6 4.7-1.5 6.9-2.6l.7 13.9c-2.8 1.1-5.8 1.9-8.8 2.5-3.1.6-6.4.8-10 .8-3 0-6.1-.4-9.4-1.2-3.3-.8-6.4-2.2-9.2-4.5-2.8-2.2-5.2-5.2-6.9-9-1.8-3.7-2.7-8.7-2.7-14.8V85.1h-22.8V71.7h22.8v-31h16v31.1h31.1v13.3zM817.9 84.5c-.2-4.7-.4-9-.7-12.7h15.3c.3 3 .6 6.3.7 9.9.1 3.6.2 6.6.2 9h.5c3.1-6.4 7.8-11.6 14.1-15.6s13.3-6 21.2-6c2.1 0 3.9.1 5.5.2 1.6.2 3.3.5 5 .9l-2.1 15.3c-.9-.3-2.5-.6-4.7-.9-2.2-.3-4.4-.5-6.6-.5-4.2 0-8.3.8-12.2 2.4-3.9 1.6-7.3 4-10.2 7.4-2.9 3.4-5.2 7.7-7 12.9-1.8 5.2-2.7 11.5-2.7 18.9V182h-16.1V96c0-3 0-6.8-.2-11.5zM994.8 123.5v3.5c0 1.2-.1 2.6-.2 4h-91.3c.1 5.5 1.2 10.6 3.3 15.5 2.1 4.9 4.9 9.1 8.5 12.7 3.6 3.6 7.8 6.5 12.7 8.6 4.9 2.1 10.1 3.2 15.8 3.2 8.3 0 15.5-1.9 21.5-5.8s10.6-8.3 13.8-13.3l12 9.4c-6.6 8.3-13.8 14.3-21.7 17.9-7.9 3.6-16.4 5.4-25.5 5.4-8.2 0-15.8-1.4-22.7-4.4-7-2.9-13-6.9-18-12.1-5-5.2-9-11.3-11.9-18.4-2.9-7-4.4-14.8-4.4-23s1.4-16 4.2-23c2.8-7 6.7-13.2 11.8-18.4 5-5.2 10.9-9.2 17.6-12.1 6.7-2.9 14-4.4 21.9-4.4 8.6 0 16.3 1.4 22.8 4.4 6.6 2.9 12.1 6.8 16.4 11.8 4.4 4.9 7.7 10.7 10 17.3 2.2 6.6 3.4 13.7 3.4 21.2zm-16.3-5.2c-.5-10.3-3.8-18.9-10-25.8-6.2-6.8-15-10.2-26.5-10.2-5.4 0-10.3 1-14.8 2.9-4.5 2-8.5 4.6-12 8-3.4 3.4-6.2 7.2-8.2 11.5-2.1 4.3-3.2 8.8-3.5 13.5l75 .1z"></path><path class="logo-color-2" d="M288.6 220.9H313c4.5 0 9.2.7 13.8 2.3 4.6 1.5 8.8 3.8 12.5 6.9 3.7 3.1 6.7 6.9 9 11.5s3.4 10 3.4 16.1c0 6.2-1.1 11.5-3.4 16.1-2.3 4.5-5.3 8.4-9 11.5-3.7 3.1-7.8 5.4-12.5 6.9-4.6 1.5-9.2 2.3-13.8 2.3h-24.4v-73.6zm7.5 66.9h14.8c5.5 0 10.3-.9 14.5-2.6 4.1-1.7 7.5-4 10.2-6.8 2.7-2.8 4.7-6 6.1-9.6 1.4-3.6 2.1-7.3 2.1-11.1s-.7-7.5-2.1-11.1c-1.4-3.6-3.4-6.8-6.1-9.6-2.7-2.8-6.1-5-10.2-6.8-4.1-1.7-9-2.6-14.5-2.6h-14.8v60.2zM361.5 294.4h-8.2l31.8-73.5h7.3l31.6 73.5h-8.3l-8.1-19.3h-38l-8.1 19.3zm10.8-26.1h32.4l-16.2-39-16.2 39zM449.4 294.4h-7.5v-66.9h-24.6v-6.7H474v6.7h-24.6v66.9zM475.5 294.4h-8.2l31.8-73.5h7.3l31.6 73.5h-8.3l-8.1-19.3h-38l-8.1 19.3zm10.8-26.1h32.4l-16.2-39-16.2 39zM603 232.8c-1.6-2.2-3.6-4-6.1-5.4-2.5-1.4-5.5-2.1-9-2.1-1.8 0-3.6.2-5.5.8-1.9.6-3.5 1.4-5.1 2.6-1.5 1.1-2.7 2.6-3.7 4.3-.9 1.7-1.4 3.8-1.4 6.1 0 2.4.4 4.3 1.4 5.8.9 1.5 2.1 2.8 3.5 3.9 1.5 1.1 3.2 1.9 5.1 2.7 1.9.7 3.9 1.4 6 2.1 2.6.8 5.1 1.7 7.7 2.7 2.6 1 4.9 2.2 7 3.8 2.1 1.6 3.7 3.5 5 5.9 1.3 2.4 2 5.4 2 9.1 0 3.7-.7 6.8-2.1 9.5-1.4 2.7-3.2 4.9-5.5 6.6-2.2 1.7-4.8 3-7.7 3.9-2.9.8-5.8 1.2-8.7 1.2-2.2 0-4.4-.2-6.7-.7-2.2-.4-4.3-1.1-6.4-2.1-2-.9-3.9-2.1-5.6-3.4s-3.2-3-4.5-4.8l6.4-4.8c1.6 2.6 3.8 4.9 6.7 6.6 2.9 1.7 6.2 2.7 10.1 2.7 1.9 0 3.8-.3 5.7-.9 1.9-.6 3.7-1.5 5.2-2.7 1.6-1.2 2.9-2.7 3.9-4.5 1-1.7 1.5-3.8 1.5-6.2 0-2.6-.5-4.7-1.5-6.4-1-1.7-2.4-3.1-4-4.2-1.7-1.1-3.5-2.1-5.7-2.9-2.1-.7-4.4-1.5-6.7-2.3-2.4-.7-4.8-1.6-7.2-2.6-2.4-1-4.5-2.2-6.4-3.8-1.9-1.6-3.4-3.5-4.5-5.8s-1.7-5.1-1.7-8.4c0-3.5.7-6.6 2.1-9.2 1.4-2.6 3.3-4.7 5.5-6.4 2.3-1.7 4.8-2.9 7.6-3.6 2.7-.7 5.5-1.1 8.2-1.1 5 0 9.2.9 12.8 2.7 3.5 1.7 6.2 3.9 8 6.3l-5.7 5zM630.7 287.8h39.4v6.7h-46.8V221h45.6v6.7h-38.1v25.2h35.6v6.7h-35.6v28.2zM689.5 294.4H682v-73.5h21.6c3.6 0 6.9.4 10 1.1 3.1.7 5.7 1.8 8 3.4 2.2 1.6 4 3.6 5.2 6.1s1.9 5.5 1.9 9.2c0 2.7-.5 5.2-1.4 7.3-1 2.2-2.3 4.1-3.9 5.8-1.7 1.6-3.6 2.9-5.9 3.9s-4.8 1.6-7.5 1.9l21.5 35h-9.2L702 260.2h-12.5v34.2zm0-40.8h13c6 0 10.6-1.1 13.9-3.3 3.2-2.2 4.9-5.5 4.9-9.8 0-2.4-.4-4.5-1.4-6.1-.9-1.7-2.1-3-3.7-4-1.6-1.1-3.5-1.8-5.8-2.3-2.3-.5-4.8-.7-7.6-.7h-13.3v26.2zM762.9 284.8h.2l23.9-63.9h8l-28.1 73.5H759l-28-73.5h8.1l23.8 63.9zM809.8 294.4h-7.5v-73.5h7.5v73.5zM888.5 282.5c-1.2 1.9-2.7 3.6-4.5 5.3-1.7 1.7-3.8 3.1-6.1 4.4-2.3 1.2-4.9 2.2-7.7 3-2.8.7-5.9 1.1-9.2 1.1-5.5 0-10.6-1-15.4-2.9-4.7-1.9-8.8-4.6-12.1-8-3.4-3.4-6-7.5-8-12.2-1.9-4.7-2.9-9.8-2.9-15.5 0-5.6 1-10.8 2.9-15.4 1.9-4.7 4.6-8.8 8-12.2 3.4-3.4 7.5-6.1 12.1-8 4.7-1.9 9.7-2.9 15.2-2.9 2.7 0 5.4.3 8 .9 2.6.6 5 1.4 7.3 2.4s4.4 2.2 6.2 3.7c1.9 1.4 3.4 3.1 4.7 4.9l-6.2 4.5c-.7-1.2-1.8-2.4-3.1-3.5-1.3-1.2-2.8-2.2-4.5-3.1-1.7-.9-3.6-1.6-5.7-2.2-2.1-.6-4.2-.8-6.6-.8-4.8 0-9 .9-12.8 2.6-3.8 1.7-7 4-9.6 7-2.6 2.9-4.7 6.4-6 10.2-1.4 3.9-2.1 7.9-2.1 12.2 0 4.3.7 8.3 2.1 12.2 1.4 3.9 3.4 7.3 6.1 10.2 2.6 2.9 5.9 5.3 9.6 7 3.8 1.7 8 2.6 12.7 2.6 4.2 0 8.2-.9 12-2.6 3.8-1.7 7-4.5 9.5-8.3l6.1 3.4zM906.2 287.8h39.4v6.7h-46.8V221h45.6v6.7h-38.1v25.2h35.6v6.7h-35.6v28.2zM993.1 232.8c-1.6-2.2-3.6-4-6.1-5.4-2.5-1.4-5.5-2.1-9-2.1-1.8 0-3.6.2-5.5.8-1.9.6-3.5 1.4-5.1 2.6-1.5 1.1-2.7 2.6-3.7 4.3-.9 1.7-1.4 3.8-1.4 6.1 0 2.4.4 4.3 1.4 5.8.9 1.5 2.1 2.8 3.5 3.9 1.5 1.1 3.2 1.9 5.1 2.7 1.9.7 3.9 1.4 6 2.1 2.6.8 5.1 1.7 7.7 2.7 2.6 1 4.9 2.2 7 3.8 2.1 1.6 3.7 3.5 5 5.9 1.3 2.4 2 5.4 2 9.1 0 3.7-.7 6.8-2.1 9.5-1.4 2.7-3.2 4.9-5.5 6.6-2.2 1.7-4.8 3-7.7 3.9-2.9.8-5.8 1.2-8.7 1.2-2.2 0-4.4-.2-6.7-.7-2.2-.4-4.3-1.1-6.4-2.1-2-.9-3.9-2.1-5.6-3.4-1.7-1.4-3.2-3-4.5-4.8l6.4-4.8c1.6 2.6 3.8 4.9 6.7 6.6 2.9 1.7 6.2 2.7 10.1 2.7 1.9 0 3.8-.3 5.7-.9 1.9-.6 3.7-1.5 5.2-2.7 1.6-1.2 2.9-2.7 3.9-4.5 1-1.7 1.5-3.8 1.5-6.2 0-2.6-.5-4.7-1.5-6.4-1-1.7-2.4-3.1-4-4.2-1.7-1.1-3.5-2.1-5.7-2.9-2.1-.7-4.4-1.5-6.7-2.3-2.4-.7-4.8-1.6-7.2-2.6-2.4-1-4.5-2.2-6.4-3.8s-3.4-3.5-4.5-5.8-1.7-5.1-1.7-8.4c0-3.5.7-6.6 2.1-9.2 1.4-2.6 3.3-4.7 5.5-6.4s4.8-2.9 7.6-3.6c2.7-.7 5.5-1.1 8.2-1.1 5 0 9.2.9 12.8 2.7 3.5 1.7 6.2 3.9 8 6.3l-5.7 5zM0 221.4h227.8v25.4H0zM227.8 294.5h-216c-6.5 0-11.8-5.3-11.8-11.8v-13.6h227.8v25.4z"></path><path class="logo-color-1" d="M0 200.5c0-14.8 4.2-32.9 33.9-38.2 34.8-6.2 186.5-53 193.9-129.3C231 116.7 96.5 193 0 200.5z"></path></svg>