<svg xmlns="http://www.w3.org/2000/svg" viewBox="0 0 125 45">
    <g data-name="logo elibri" transform="translate(-133.918 -192.921)">
        <path d="M158.652 289.835h-19.188a6.7 6.7 0 0 0 2.207 4.933 8.057 8.057 0 0 0 5.468 1.761q4.288 0 6.522-2.206l2.433 4.734q-3.311 2.653-9.882 2.653-6.145 0-9.719-3.559t-3.574-9.928a13.68 13.68 0 0 1 3.926-10.164 13.882 13.882 0 0 1 18.8-.447 11.728 11.728 0 0 1 3.537 8.776 17.085 17.085 0 0 1-.53 3.447zm-18.962-4.661h13.193q-.652-5.825-6.521-5.826-5.368.001-6.672 5.826z" class="prefix__cls-1" data-name="Path 1" transform="translate(1 -63.79)"></path>
        <path d="M267.773 194.663l7.343-1.742v34.954c0 3.833.031 9.78.031 9.78s.361.266-2.38.266q-4.994 0-4.993-6.852z" class="prefix__cls-1" data-name="Path 2" transform="translate(-104.758)"></path>
        <path d="M548.741 285.6l-9.8-12.3c-1.054-.016-3.209-.065-5.1-.151V285.6H526.6v-29.343c.392 0 7.13-1.866 7.13-1.866h4c9.972 0 14.708 2.556 14.708 8.733a7.432 7.432 0 0 1-2.064 5.083 11.169 11.169 0 0 1-5.2 3.238l11.608 14.155zm-14.9-25.9v8.057q1.929.128 2.948.127a15.412 15.412 0 0 0 6.393-.987 2.935 2.935 0 0 0 2.024-3.165 3.27 3.27 0 0 0-2.172-3.239 18.685 18.685 0 0 0-6.835-.922 22.486 22.486 0 0 0-2.36.129z" class="prefix__cls-1" data-name="Path 3" transform="translate(-307.323 -48.263)"></path>
        <path d="M392.749 285.874h-13.176V256.3l7.427-1.79s3.638-.118 4.767-.118c4.471 0 7.973.127 10.492 1.538a6.611 6.611 0 0 1 3.779 6.041c0 2.517-1.122 4.5-4.73 5.965 5.353 1.374 7.348 4.208 7.348 8.5q0 4.339-4.441 6.887t-11.466 2.551zm-5.529-25.9v5.6q1.764.087 3.706.088c4.98 0 7.469-.036 7.469-2.8 0-2.444-2.265-2.993-6.793-2.993q-1.795-.002-4.382.106zm0 11.345v8.48q2.323.151 3.765.152 5.117 0 7.425-1.28c1.54-.853 2.309-1.6 2.309-3.579 0-1.807-.715-2.45-2.147-3.276s-3.932-.563-7.5-.563q-1.118 0-3.852.066z" class="prefix__cls-1" data-name="Path 4" transform="translate(-192.255 -48.263)"></path>
        <path d="M322.53 286.034v-29.298l7.434-1.794v31.093z" class="prefix__cls-1" data-name="Path 5" transform="translate(-147.61 -48.695)"></path>
        <path d="M674.769 286.034v-25.141l.014-4.157 7.417-1.794v31.093z" class="prefix__cls-1" data-name="Path 6" transform="translate(-423.282 -48.695)"></path>
    </g>
</svg>