<svg class="tibi-header-logo" xmlns="http://www.w3.org/2000/svg" xml:space="preserve" viewBox="0 0 340 105">
				<path fill="var(--color-primary)" d="M172.9 52c0 3.4-2.8 6.2-6.2 6.2-3.4 0-6.2-2.8-6.2-6.2s2.8-6.2 6.2-6.2c3.4 0 6.2 2.8 6.2 6.2zm-29.5 5c-3.5 0-6.3 2.8-6.3 6.3s2.8 6.3 6.3 6.3 6.3-2.8 6.3-6.3-2.9-6.3-6.3-6.3zm0-22.4c-3.5 0-6.3 2.8-6.3 6.3s2.8 6.3 6.3 6.3 6.3-2.8 6.3-6.3-2.9-6.3-6.3-6.3zm-23.5-10.8c-3.5 0-6.3 2.8-6.3 6.3s2.8 6.3 6.3 6.3 6.3-2.8 6.3-6.3-2.8-6.3-6.3-6.3zm0 44c-3.5 0-6.3 2.8-6.3 6.3s2.8 6.3 6.3 6.3 6.3-2.8 6.3-6.3-2.8-6.3-6.3-6.3zm0-22c-3.5 0-6.3 2.8-6.3 6.3s2.8 6.3 6.3 6.3 6.3-2.8 6.3-6.3-2.8-6.3-6.3-6.3zm-93.7 0c-3.4 0-6.2 2.8-6.2 6.2s2.8 6.2 6.2 6.2 6.2-2.8 6.2-6.2-2.8-6.2-6.2-6.2zm23.4-11.2c-3.5 0-6.3 2.8-6.3 6.3v22.5c0 3.5 2.8 6.3 6.3 6.3s6.3-2.8 6.3-6.3V40.8c0-3.4-2.9-6.2-6.3-6.2zM73 23.8c-3.5 0-6.3 2.8-6.3 6.3v44c0 3.5 2.8 6.3 6.3 6.3s6.3-2.8 6.3-6.3v-44c0-3.5-2.8-6.3-6.3-6.3zm23.5-11.3c-3.5 0-6.3 2.8-6.3 6.3v66.5c0 3.5 2.8 6.3 6.3 6.3s6.3-2.8 6.3-6.3V18.8c0-3.4-2.9-6.3-6.3-6.3z"></path>
				<path fill="#fff6ed" d="M188 23.4h40.7v5.9h-16.8v52.9h-7.1V29.4H188v-6zm56.1 4.1c-1.4 0-2.5.4-3.4 1.3s-1.3 1.9-1.3 3.3.4 2.5 1.3 3.4c.9.8 2 1.2 3.4 1.2s2.5-.4 3.3-1.2c.9-.8 1.3-1.9 1.3-3.4 0-1.4-.4-2.5-1.3-3.3-.8-.8-1.9-1.3-3.3-1.3zm-3.6 54.8h7V43.9h-7v38.4zm70.3 0h6.9V43.9h-6.9v38.4zm3.6-45.6c1.4 0 2.5-.4 3.4-1.2.9-.8 1.3-1.9 1.3-3.4 0-1.4-.4-2.5-1.3-3.3-.9-.9-2-1.3-3.4-1.3s-2.5.4-3.4 1.3-1.3 1.9-1.3 3.3.4 2.5 1.3 3.4c.9.8 2 1.2 3.4 1.2zm-20.5 11.8c2.6 3.5 3.8 8.2 3.8 14.1 0 4.3-.8 8-2.3 11.1-1.5 3.1-3.5 5.4-6 7.1-2.5 1.6-5.2 2.4-8.1 2.4h-.6c-1.6-.1-3.2-.5-4.9-1.3-1.9-.9-3.7-2.1-5.4-3.6h-.2l-.6 3.9H264V23.4h6.9v18.3l-.1 4-.1 2.9c1.7-1.5 3.6-2.8 5.7-3.8s4.1-1.5 6.2-1.5c5 0 8.8 1.7 11.3 5.2zm-2.8 14.2c0-4.2-.8-7.5-2.3-10.1-1.5-2.6-4.1-3.9-7.7-3.9-1.6 0-3.3.4-4.9 1.3-1.7.9-3.4 2.2-5.2 3.8v20c1.7 1.5 3.3 2.5 5 3.1 1.6.6 3.1.9 4.3.9 1.5 0 2.8-.3 4-.9 1.4-.7 2.7-1.7 3.8-3.2 2-2.6 3-6.3 3-11z"></path>
			</svg>