<?xml version="1.0" encoding="UTF-8"?>
<svg id="Calque_2" data-name="Calque 2" xmlns="http://www.w3.org/2000/svg" viewBox="0 0 53.93 53.93">
  <defs>
    <style>
      .cls-1 {
        fill: #fff;
      }

      .cls-1, .cls-2 {
        stroke-width: 0px;
      }

      .cls-2 {
        fill: #1a3c6c;
      }
    </style>
  </defs>
  <g id="Calque_1-2" data-name="Calque 1">
    <g>
      <path class="cls-1" d="m53.93,26.97c0,14.89-12.07,26.97-26.97,26.97S0,41.86,0,26.97,12.07,0,26.97,0s26.97,12.07,26.97,26.97Z"/>
      <g>
        <path class="cls-2" d="m10.3,29.44V11.34h11.92v3.15h-8.39v4.24h7.14v3.15h-7.14v4.4h8.39v3.15h-11.92Z"/>
        <path class="cls-2" d="m33.27,27.71c-1.19,1.2-2.9,1.73-4.78,1.73h-6.53V11.34h6.53c1.88,0,3.58.53,4.78,1.73,2.03,2.03,1.83,4.52,1.83,7.24s.2,5.36-1.83,7.4Zm-2.47-12.1c-.61-.74-1.42-1.12-2.64-1.12h-2.67v11.79h2.67c1.22,0,2.03-.38,2.64-1.12.66-.81.76-2.11.76-4.85s-.1-3.89-.76-4.7Z"/>
        <path class="cls-2" d="m41.68,33.3l-3.53-7.22h-2.54v7.22h-3.53V15.2h7.09c3.69,0,5.87,2.52,5.87,5.54,0,2.54-1.55,4.12-3.3,4.75l4.04,7.8h-4.09Zm-2.75-14.95h-3.33v4.78h3.33c1.55,0,2.57-.99,2.57-2.39s-1.02-2.39-2.57-2.39Z"/>
      </g>
      <g>
        <path class="cls-2" d="m10.29,43.04v-16.4h3.2v13.54h7.44v2.85h-10.64Z"/>
        <path class="cls-2" d="m28.33,42.9v-1.04c-.81.81-1.57,1.15-2.95,1.15s-2.35-.35-3.06-1.06c-.64-.67-.99-1.63-.99-2.69,0-1.91,1.31-3.48,4.1-3.48h2.83v-.6c0-1.31-.65-1.89-2.24-1.89-1.15,0-1.68.28-2.3.99l-1.91-1.86c1.17-1.29,2.33-1.66,4.33-1.66,3.36,0,5.11,1.43,5.11,4.24v7.9h-2.92Zm-.07-5.07h-2.37c-1.08,0-1.68.51-1.68,1.36s.55,1.38,1.73,1.38c.83,0,1.36-.07,1.89-.57.32-.3.44-.78.44-1.52v-.65Z"/>
        <path class="cls-2" d="m40.89,41.89c-.67.67-1.75,1.08-2.92,1.08-1.27,0-2.17-.34-2.99-1.27v1.13h-2.9v-20.24h2.99v9.3c.78-.87,1.68-1.2,2.9-1.2s2.26.41,2.92,1.08c1.2,1.2,1.22,3.25,1.22,5.04s-.02,3.87-1.22,5.07Zm-3.8-8.5c-1.8,0-2.03,1.47-2.03,3.43s.23,3.45,2.03,3.45,2.03-1.5,2.03-3.45-.23-3.43-2.03-3.43Z"/>
      </g>
    </g>
  </g>
</svg>